<?xml version="1.0" encoding="UTF-8"?>
<svg version="1.1" xmlns="http://www.w3.org/2000/svg" width="366" height="366">
<path d="M0 0 C0.323939 6.21962885 -0.2828789 11.19002367 -2.5 17 C-2.76699707 17.72276123 -3.03399414 18.44552246 -3.30908203 19.19018555 C-11.2856534 40.26591794 -22.80638227 57.12864016 -37.9921875 73.76953125 C-39.67776112 75.64202646 -41.29136152 77.54178834 -42.875 79.5 C-45 82 -45 82 -48 84 C-48.52085619 86.346912 -48.52085619 86.346912 -48.5546875 89.1015625 C-48.60915039 90.14159424 -48.66361328 91.18162598 -48.71972656 92.25317383 C-48.7709668 93.36587646 -48.82220703 94.4785791 -48.875 95.625 C-50.47609508 120.86019695 -60.33612959 139.9090976 -79 157 C-81.27839708 158.80728467 -83.56152667 160.40969131 -86 162 C-85.27296875 162.27972656 -84.5459375 162.55945313 -83.796875 162.84765625 C-64.10656487 170.69853632 -46.96783281 182.36922093 -38.02685547 202.15332031 C-36.0261333 207.00898133 -34.42573192 211.94864513 -33 217 C-32.73445313 217.90621094 -32.46890625 218.81242188 -32.1953125 219.74609375 C-26.76691598 242.98409255 -32.19978994 269.84915629 -43.875 290.3125 C-56.59900996 310.31211878 -74.99169608 324.04117713 -97.4375 331.375 C-98.50774414 331.73295654 -98.50774414 331.73295654 -99.59960938 332.09814453 C-112.62930422 336.08136026 -126.34840046 336.29765304 -139.85180664 336.25878906 C-141.46840572 336.26150794 -143.08500356 336.26507384 -144.70159912 336.26940918 C-149.0377919 336.27842241 -153.37388811 336.2750371 -157.71008229 336.26865101 C-162.26981291 336.26354086 -166.82953598 336.26829553 -171.38926697 336.27142334 C-179.03223132 336.27504518 -186.6751568 336.27030748 -194.31811523 336.26074219 C-203.14223163 336.24982593 -211.96625582 336.25341332 -220.79037005 336.264395 C-228.39414414 336.27347702 -235.99789053 336.27474973 -243.6016683 336.26951766 C-248.1316631 336.2664075 -252.66161454 336.26596305 -257.19160652 336.27259064 C-261.44268234 336.27837804 -265.69363915 336.27434176 -269.94470215 336.26280212 C-271.50111633 336.26016451 -273.05754059 336.26090524 -274.61395073 336.26532745 C-276.74338319 336.27081911 -278.87243771 336.26390585 -281.00184631 336.25396729 C-282.1913794 336.25321323 -283.38091249 336.25245918 -284.60649204 336.25168228 C-290.99932175 335.77755286 -295.99167961 334.00665631 -301 330 C-307.51870737 322.03269099 -307.27742926 313.30237372 -307.125 303.5 C-307.11597656 302.39140625 -307.10695313 301.2828125 -307.09765625 300.140625 C-307.07426167 297.42685408 -307.04148175 294.71354455 -307 292 C-308.02770508 292.34256836 -309.05541016 292.68513672 -310.11425781 293.03808594 C-316.45898438 295.15299479 -322.80371094 297.26790365 -329.1484375 299.3828125 C-329.94529968 299.64854065 -330.74216187 299.9142688 -331.56317139 300.18804932 C-333.15247001 300.71759906 -334.74202801 301.24637104 -336.33184814 301.77435303 C-339.78877982 302.92327043 -343.23998327 304.0830491 -346.68261719 305.27441406 C-347.73610352 305.63760742 -348.78958984 306.00080078 -349.875 306.375 C-350.76445312 306.68695313 -351.65390625 306.99890625 -352.5703125 307.3203125 C-356.16874535 308.32694805 -359.2903896 308.28535465 -363 308 C-362.62145648 302.57420948 -361.01613356 300.55975475 -357 297 C-356.113125 296.071875 -355.22625 295.14375 -354.3125 294.1875 C-352 292 -352 292 -350 292 C-349.76925781 291.44183594 -349.53851563 290.88367188 -349.30078125 290.30859375 C-347.65466491 287.38710799 -345.58926868 285.39945334 -343.1875 283.0625 C-342.33542969 282.22847656 -341.48335938 281.39445312 -340.60546875 280.53515625 C-339.31576172 279.28025391 -339.31576172 279.28025391 -338 278 C-334.83564521 274.88380891 -331.80781933 271.70926989 -328.875 268.375 C-324.58601365 263.56874896 -320.08578918 259.04196144 -315.48046875 254.54296875 C-313.13420949 252.13759115 -311.06722356 249.64515702 -309 247 C-305.50537731 243.3112316 -301.74841915 240.01569162 -297.8671875 236.74609375 C-295.91740995 235.03191411 -295.91740995 235.03191411 -294.3828125 232.78515625 C-293.92648437 232.19605469 -293.47015625 231.60695312 -293 231 C-292.34 231 -291.68 231 -291 231 C-291.01571045 232.21880859 -291.0314209 233.43761719 -291.04760742 234.69335938 C-291.10264518 239.29306204 -291.13661363 243.89273679 -291.16479492 248.49267578 C-291.17971574 250.46896284 -291.20005972 252.44521779 -291.22631836 254.42138672 C-291.38234819 266.48157503 -291.39901635 278.31704754 -288 290 C-286.07857558 292.35601529 -286.07857558 292.35601529 -282.6875 292.25 C-279.20651098 292.01400074 -277.00985766 291.71991866 -274 290 C-273.69296143 289.38560059 -273.38592285 288.77120117 -273.06958008 288.13818359 C-271.89055253 285.781205 -270.58465121 284.37032927 -268.69921875 282.5390625 C-268.05146484 281.90226562 -267.40371094 281.26546875 -266.73632812 280.609375 C-266.06021484 279.95453125 -265.38410156 279.2996875 -264.6875 278.625 C-260.19486039 274.25001438 -255.95027838 269.8722464 -252 265 C-249.56813708 262.5073405 -247.08875911 260.08420736 -244.5625 257.6875 C-242.47062718 255.49358461 -240.76811597 253.3793993 -239 250.9375 C-236.62495786 247.69221341 -234.17901612 245.48118332 -231 243 C-229.93756653 241.83104285 -228.89839657 240.640781 -227.875 239.4375 C-224.0140474 234.90618421 -219.8039594 230.77020642 -215.55078125 226.61328125 C-213.17901021 224.18339637 -211.08968508 221.67190835 -209 219 C-207.3563186 217.31066078 -205.6857124 215.64740076 -204 214 C-197.76852031 207.89998613 -191.89918295 201.61351284 -186.4375 194.8125 C-184.30302944 192.34964935 -182.11709401 190.41867521 -179.58203125 188.390625 C-177.14715995 186.25034307 -175.14841002 183.76975013 -173.05078125 181.3046875 C-170.63851299 178.59375746 -168.08398027 176.045028 -165.5 173.5 C-161.72093293 169.77263976 -158.13425712 165.95032101 -154.69140625 161.91015625 C-152.19387802 159.08962206 -149.50276486 156.47867638 -146.796875 153.859375 C-144.93294877 152.01967091 -144.93294877 152.01967091 -143.390625 149.765625 C-142.93171875 149.18296875 -142.4728125 148.6003125 -142 148 C-141.34 148 -140.68 148 -140 148 C-139.60361328 147.11054688 -139.60361328 147.11054688 -139.19921875 146.203125 C-137.95629575 143.91970946 -136.69598354 142.52573277 -134.8125 140.75 C-132.26329151 138.2797959 -129.87180507 135.75845477 -127.5625 133.0625 C-125.14382221 130.25423653 -122.64100317 127.60029407 -120 125 C-116.75361224 121.80355667 -113.75928295 118.46676206 -110.79296875 115.01171875 C-108.24482765 112.15269334 -105.50922593 109.49850707 -102.78125 106.8125 C-100.67571671 104.67002753 -98.85190291 102.36277268 -97 100 C-95.3545622 98.31237149 -93.68711423 96.6459651 -92 95 C-91.154375 94.05125 -90.30875 93.1025 -89.4375 92.125 C-87 90 -87 90 -84.98828125 90.03515625 C-83 91 -83 91 -81.734375 93.30078125 C-79.30743517 100.72606143 -78.50237649 107.20389833 -79 115 C-78.401875 114.505 -77.80375 114.01 -77.1875 113.5 C-75 112 -75 112 -72 112 C-71.34 110.68 -70.68 109.36 -70 108 C-69.34 108 -68.68 108 -68 108 C-64.9682062 98.90461859 -67.56689026 88.70065136 -71.21875 80.14453125 C-76.54402854 69.65669101 -83.65638325 62.19732787 -93.91015625 56.47265625 C-94.59980469 55.98667969 -95.28945313 55.50070313 -96 55 C-96 54.01 -96 53.02 -96 52 C-97.89999557 52.73939222 -99.79484167 53.49202344 -101.6875 54.25 C-102.74324219 54.66765625 -103.79898437 55.0853125 -104.88671875 55.515625 C-109.34109179 57.63941641 -112.26097531 59.89146297 -115 64 C-113.85724609 64.41958984 -113.85724609 64.41958984 -112.69140625 64.84765625 C-105.50833863 67.63658762 -99.74327544 70.8542203 -94 76 C-93.13375 76.77150391 -93.13375 76.77150391 -92.25 77.55859375 C-91 79 -91 79 -91.0625 81.4375 C-92.17458398 84.47719621 -93.50890901 85.96183465 -96 88 C-96.66 88 -97.32 88 -98 88 C-98.33 88.99 -98.66 89.98 -99 91 C-101.04876575 92.75270134 -103.09734993 94.38487152 -105.25 96 C-106.53414182 96.9849099 -107.81665701 97.97194373 -109.09765625 98.9609375 C-110.07629639 99.71648926 -110.07629639 99.71648926 -111.07470703 100.48730469 C-114.00910545 102.79285029 -116.85173914 105.19987037 -119.6875 107.625 C-120.75121932 108.53134715 -121.81502053 109.43759818 -122.87890625 110.34375 C-123.39469238 110.78332031 -123.91047852 111.22289063 -124.44189453 111.67578125 C-126.99007432 113.84145458 -129.55230452 115.9884119 -132.125 118.125 C-132.99382812 118.84945312 -133.86265625 119.57390625 -134.7578125 120.3203125 C-137 122 -137 122 -140 123 C-140 123.66 -140 124.32 -140 125 C-141.4609375 126.2890625 -141.4609375 126.2890625 -143.375 127.625 C-144.00148437 128.07101563 -144.62796875 128.51703125 -145.2734375 128.9765625 C-147 130 -147 130 -149 130 C-149 130.66 -149 131.32 -149 132 C-151.28786417 134.08449847 -153.60490407 136.04373158 -156 138 C-156.9384375 138.79019531 -157.876875 139.58039063 -158.84375 140.39453125 C-159.8234375 141.21308594 -160.803125 142.03164062 -161.8125 142.875 C-162.74707031 143.65617188 -163.68164062 144.43734375 -164.64453125 145.2421875 C-167 147 -167 147 -169 147 C-169 147.66 -169 148.32 -169 149 C-170.46690559 150.3327188 -172.00322501 151.58913869 -173.5625 152.8125 C-178.33092378 156.62232312 -182.96985002 160.54284276 -187.5625 164.5625 C-191.68070905 168.16020532 -195.81273178 171.69682724 -200.125 175.0625 C-204.8160257 178.73988698 -209.14411194 182.75924544 -213.44775391 186.87719727 C-220.98128504 194 -220.98128504 194 -225 194 C-225.33 194.99 -225.66 195.98 -226 197 C-227.61159629 198.45907021 -229.28974668 199.84542621 -231 201.1875 C-235.55954825 204.80901619 -239.88955744 208.57232163 -244.125 212.56640625 C-246 214 -246 214 -249 214 C-249.25910156 214.59296875 -249.51820313 215.1859375 -249.78515625 215.796875 C-251.08744471 218.15858141 -252.39298478 219.50886446 -254.4375 221.25 C-255.33275391 222.03117187 -255.33275391 222.03117187 -256.24609375 222.828125 C-258 224 -258 224 -261 224 C-261.46128863 214.49617287 -260.02426894 205.39941453 -258.5 196.0625 C-258.14064088 193.82410272 -257.78372998 191.58535633 -257.43005371 189.34605408 C-257.11120656 187.33287573 -256.78529912 185.32081931 -256.45898438 183.30883789 C-255.90840062 179.89640951 -255.90840062 179.89640951 -256 176 C-256.60328125 176.56589844 -257.2065625 177.13179687 -257.828125 177.71484375 C-258.62734375 178.44832031 -259.4265625 179.18179688 -260.25 179.9375 C-261.03890625 180.66839844 -261.8278125 181.39929688 -262.640625 182.15234375 C-265 184 -265 184 -267.171875 184.50390625 C-267.77515625 184.66761719 -268.3784375 184.83132812 -269 185 C-269.70324904 186.31440595 -270.36572923 187.65095485 -271 189 C-272.890625 190.75390625 -272.890625 190.75390625 -275.25 192.5625 C-276.13300781 193.24828125 -277.01601563 193.9340625 -277.92578125 194.640625 C-278.94027344 195.41921875 -279.95476562 196.1978125 -281 197 C-282.85606321 198.44354848 -284.70873014 199.89131388 -286.55957031 201.34155273 C-287.7925024 202.30728542 -289.02746893 203.27042751 -290.26464844 204.23071289 C-292.99968651 206.3652921 -295.57724533 208.5195607 -298 211 C-299.16685217 211.92256686 -300.35489285 212.81896181 -301.5625 213.6875 C-302.16191406 214.12449219 -302.76132812 214.56148437 -303.37890625 215.01171875 C-305 216 -305 216 -307 216 C-307.07008334 191.7391446 -307.12298491 167.47830437 -307.15543652 143.21736813 C-307.1709049 131.95257623 -307.19199395 120.68784723 -307.22631836 109.4230957 C-307.2562215 99.6046574 -307.27557521 89.78626465 -307.28226548 79.96778208 C-307.28617617 74.76904668 -307.29536638 69.5704416 -307.31719017 64.37174797 C-307.33756968 59.47739139 -307.3438308 54.58321868 -307.33932304 49.6888237 C-307.34014758 47.89375242 -307.34610448 46.09867492 -307.35761642 44.30364037 C-307.37258358 41.8492105 -307.36893842 39.39547125 -307.36076355 36.94102478 C-307.36950207 36.23380734 -307.3782406 35.5265899 -307.38724393 34.79794163 C-307.34224533 29.78567103 -306.17169573 26.41509486 -304 22 C-303.34 22 -302.68 22 -302 22 C-301.91303108 21.3958278 -301.82606216 20.7916556 -301.73645782 20.16917515 C-300.52329309 16.59589953 -297.96878718 15.67961581 -294.73509216 14.01821709 C-289.74521359 12.16059061 -284.80428968 12.28336286 -279.53320312 12.30883789 C-278.3138356 12.2951416 -277.09446808 12.28144531 -275.83815002 12.26733398 C-272.51229689 12.23515779 -269.18780395 12.22489133 -265.86189079 12.22523808 C-262.34877267 12.22087871 -258.83587573 12.18989004 -255.32287598 12.16246033 C-249.40843718 12.12015632 -243.49416562 12.09668578 -237.57958984 12.08569336 C-230.81037059 12.07299716 -224.04164832 12.03620624 -217.27261972 11.98471838 C-209.99353578 11.92951322 -202.71443187 11.89114856 -195.4352169 11.85812831 C-193.37627214 11.84781909 -191.31736231 11.8346844 -189.25843811 11.8209095 C-120.55895001 11.41983683 -120.55895001 11.41983683 -93 35 C-91.8125427 35.97921844 -90.62504723 36.95839062 -89.4375 37.9375 C-88.2309375 38.9584375 -88.2309375 38.9584375 -87 40 C-83.4077633 36.99425093 -79.94125925 33.99496494 -76.6875 30.625 C-61.96321527 15.83585058 -21.86878518 -10.93439259 0 0 Z M-239 78 C-240.0218212 81.06546361 -240.13859859 83.19039685 -240.16113281 86.40185547 C-240.17074036 87.50665253 -240.1803479 88.61144958 -240.19024658 89.74972534 C-240.19449646 90.94348785 -240.19874634 92.13725037 -240.203125 93.3671875 C-240.20882507 94.59406281 -240.21452515 95.82093811 -240.22039795 97.08499146 C-240.22985044 99.68246599 -240.23638291 102.27995253 -240.24023438 104.87744141 C-240.24994406 108.85210049 -240.28096778 112.82624347 -240.3125 116.80078125 C-240.31902961 119.32291359 -240.32428025 121.84504964 -240.328125 124.3671875 C-240.3404718 125.55690155 -240.3528186 126.7466156 -240.36553955 127.97238159 C-240.36253845 129.08348297 -240.35953735 130.19458435 -240.35644531 131.33935547 C-240.36009094 132.31403778 -240.36373657 133.28872009 -240.36749268 134.29293823 C-239.92412435 137.55892286 -238.99027042 139.38365253 -237 142 C-234.21192796 143.88338626 -231.96038701 144.2591185 -228.63378906 144.30639648 C-227.77899963 144.32238388 -226.92421021 144.33837128 -226.04351807 144.35484314 C-225.12681335 144.36020584 -224.21010864 144.36556854 -223.265625 144.37109375 C-222.3136322 144.38012222 -221.3616394 144.3891507 -220.38079834 144.39845276 C-218.36685324 144.41295054 -216.35286108 144.42184082 -214.33886719 144.42553711 C-211.27457075 144.43740484 -208.2123074 144.48657081 -205.1484375 144.53710938 C-203.18750978 144.54657757 -201.22656974 144.55381071 -199.265625 144.55859375 C-198.35701721 144.57812607 -197.44840942 144.59765839 -196.51226807 144.61778259 C-190.32024792 144.57439604 -185.66568251 143.26372122 -181 139 C-181 138.34 -181 137.68 -181 137 C-180.319375 136.773125 -179.63875 136.54625 -178.9375 136.3125 C-175.3011291 134.68773854 -171.97170737 132.67196743 -169 130 C-169 129.34 -169 128.68 -169 128 C-168.443125 127.896875 -167.88625 127.79375 -167.3125 127.6875 C-164.5230899 126.85821592 -162.3860936 125.65700944 -160 124 C-160 123.34 -160 122.68 -160 122 C-159.34 122 -158.68 122 -158 122 C-158 121.34 -158 120.68 -158 120 C-157.2575 119.71125 -156.515 119.4225 -155.75 119.125 C-151.21661103 117.27043178 -148.38948697 115.59491042 -145 112 C-144.154375 111.236875 -143.30875 110.47375 -142.4375 109.6875 C-138.83410447 105.71452544 -137.29741539 101.97037697 -136.5 96.6875 C-137.26170156 91.06995099 -139.2292232 85.34549478 -143.6796875 81.578125 C-145.68902197 80.37404942 -145.68902197 80.37404942 -149 79 C-149.88800293 78.48663086 -150.77600586 77.97326172 -151.69091797 77.44433594 C-155.67038203 75.70739412 -159.23658714 75.44450241 -163.5078125 75.328125 C-164.36351837 75.29551575 -165.21922424 75.26290649 -166.1008606 75.22930908 C-177.71496944 74.83474702 -189.33971678 74.77732476 -200.95947266 74.75976562 C-204.91719331 74.74989477 -208.87442805 74.71868141 -212.83203125 74.6875 C-215.3645803 74.68098276 -217.89713299 74.6757273 -220.4296875 74.671875 C-222.1921431 74.6533548 -222.1921431 74.6533548 -223.99020386 74.63446045 C-231.94640507 74.58972486 -231.94640507 74.58972486 -239 78 Z M-179.55297852 212.21264648 C-181.1535835 214.77241408 -181.1535835 214.77241408 -181 217 C-181.99 217.33 -182.98 217.66 -184 218 C-184 218.66 -184 219.32 -184 220 C-184.66 220 -185.32 220 -186 220 C-187.56254482 222.34381722 -188.85602784 224.67606264 -190 227.25 C-191 229 -191 229 -194 230 C-195.37376958 231.9724439 -196.70018052 233.97805858 -198 236 C-199.70612142 238.18097953 -201.50581961 240.27699044 -203.3125 242.375 C-203.7974292 242.94371826 -204.2823584 243.51243652 -204.78198242 244.09838867 C-207.42925493 247.19648556 -210.10812922 250.26404633 -212.8125 253.3125 C-215.07106647 255.89839494 -217.29374062 258.50530804 -219.4375 261.1875 C-219.93121094 261.79980469 -220.42492187 262.41210938 -220.93359375 263.04296875 C-222.2953569 265.54202859 -222.33525507 267.19396097 -222 270 C-219.43069643 272.56930357 -217.71710663 272.24849903 -214.21418762 272.28216553 C-213.40487289 272.27968811 -212.59555817 272.27721069 -211.76171875 272.2746582 C-210.48327339 272.2823246 -210.48327339 272.2823246 -209.17900085 272.29014587 C-206.34842993 272.30409513 -203.51810132 272.30307985 -200.6875 272.30078125 C-198.71891184 272.30466785 -196.75032451 272.30900244 -194.78173828 272.31376648 C-190.64564302 272.32124202 -186.50963305 272.32092967 -182.37353516 272.31567383 C-177.09227496 272.30990506 -171.81136843 272.32674069 -166.53016663 272.3500185 C-162.45845521 272.36481497 -158.38682754 272.36561904 -154.31509399 272.36250877 C-152.36959132 272.36301993 -150.4240837 272.36821886 -148.47860718 272.37832069 C-134.4344556 272.63999316 -134.4344556 272.63999316 -121 269 C-120.03707031 268.58621094 -119.07414062 268.17242187 -118.08203125 267.74609375 C-110.38100463 263.30574277 -105.83590743 257.6296796 -102.5625 249.375 C-100.91990009 240.43195603 -100.36412633 229.06009855 -105 221 C-105.60328125 219.88044922 -105.60328125 219.88044922 -106.21875 218.73828125 C-111.54179275 209.79261218 -119.15501718 205.62239505 -129 203 C-132.23833089 202.52505739 -135.44496211 202.37133201 -138.71484375 202.28515625 C-139.61062637 202.26094101 -140.506409 202.23672577 -141.42933655 202.21177673 C-143.31071085 202.17057562 -145.19229929 202.13826742 -147.07397461 202.11450195 C-148.98187865 202.07985419 -150.88948498 202.01834455 -152.7956543 201.92993164 C-165.11039218 201.36048238 -172.30750197 201.59000753 -179.55297852 212.21264648 Z " fill="#5F21DC" transform="translate(364,9)"/>
<path d="M0 0 C0.99 0.33 1.98 0.66 3 1 C3.66 0.67 4.32 0.34 5 0 C5.20625 0.94875 5.4125 1.8975 5.625 2.875 C6.70833333 6.29166667 6.70833333 6.29166667 10.125 7.375 C11.07375 7.58125 12.0225 7.7875 13 8 C13 9.32 13 10.64 13 12 C14.65002828 13.35386936 16.3174387 14.68678142 18 16 C18.8125 18.25 18.8125 18.25 19 20 C21.31 20 23.62 20 26 20 C26 22.33333333 26 24.66666667 26 27 C26.99 27 27.98 27 29 27 C29 27.66 29 28.32 29 29 C29.66 29 30.32 29 31 29 C32.16208554 36.85253919 33.17795049 44.71114233 33.8125 52.625 C33.92207031 53.91664062 34.03164063 55.20828125 34.14453125 56.5390625 C33.98616022 60.33140667 33.30890191 62.03297878 31 65 C28.875 66.1875 28.875 66.1875 27 67 C26.67 67.66 26.34 68.32 26 69 C24.68 68.67 23.36 68.34 22 68 C22.99 67.67 23.98 67.34 25 67 C25.165 66.34 25.33 65.68 25.5 65 C25.7475 64.01 25.7475 64.01 26 63 C26.99 62.67 27.98 62.34 29 62 C32.0317938 52.90461859 29.43310974 42.70065136 25.78125 34.14453125 C20.45597146 23.65669101 13.34361675 16.19732787 3.08984375 10.47265625 C2.40019531 9.98667969 1.71054687 9.50070313 1 9 C1 8.01 1 7.02 1 6 C-0.89999557 6.73939222 -2.79484167 7.49202344 -4.6875 8.25 C-6.27111328 8.87648438 -6.27111328 8.87648438 -7.88671875 9.515625 C-12.34109179 11.63941641 -15.26097531 13.89146297 -18 18 C-17.23816406 18.27972656 -16.47632813 18.55945313 -15.69140625 18.84765625 C-8.50833863 21.63658762 -2.74327544 24.8542203 3 30 C3.5775 30.51304688 4.155 31.02609375 4.75 31.5546875 C6 33 6 33 5.9375 35.5 C4.83236473 38.44702738 3.64505618 39.37883653 1 41 C0.3125 39.25 0.3125 39.25 0 37 C1.4375 34.75 1.4375 34.75 3 33 C2.46375 32.87625 1.9275 32.7525 1.375 32.625 C-1.4638286 31.87793984 -4.22223202 30.94696636 -7 30 C-7 28.68 -7 27.36 -7 26 C-9.64 25.67 -12.28 25.34 -15 25 C-15 24.01 -15 23.02 -15 22 C-17.31 22 -19.62 22 -22 22 C-23.25664978 19.09399739 -24 17.20395416 -24 14 C-22.68 13.67 -21.36 13.34 -20 13 C-20 11.35 -20 9.7 -20 8 C-17.69 8 -15.38 8 -13 8 C-13 7.34 -13 6.68 -13 6 C-12.01 6 -11.02 6 -10 6 C-10 5.34 -10 4.68 -10 4 C-8.68 4 -7.36 4 -6 4 C-6 3.34 -6 2.68 -6 2 C-3.03 2.495 -3.03 2.495 0 3 C0 2.01 0 1.02 0 0 Z " fill="#821ADD" transform="translate(267,55)"/>
<path d="M0 0 C0 0.33 0 0.66 0 1 C-4.95 1 -9.9 1 -15 1 C-15 1.66 -15 2.32 -15 3 C-34.01791677 3.07579285 -53.03021356 2.97313229 -72.046875 2.74609375 C-74.15751138 2.72132264 -76.26814777 2.69655254 -78.37878418 2.67178345 C-87.05921338 2.56900387 -95.73960554 2.46373912 -104.41992188 2.35180664 C-109.81360489 2.28247677 -115.20732834 2.21824566 -120.60111237 2.15730476 C-122.63449733 2.1333267 -124.6678604 2.10740726 -126.70119476 2.07946587 C-129.51528108 2.04092206 -132.32937221 2.0088545 -135.14355469 1.97827148 C-135.97140472 1.96532547 -136.79925476 1.95237946 -137.65219116 1.93904114 C-141.58185992 1.90297209 -145.16205366 2.0168053 -149 3 C-148 1 -148 1 -145 0 C-143.33017709 -0.1034261 -141.65660363 -0.15056646 -139.98364258 -0.16494751 C-138.42836853 -0.18179848 -138.42836853 -0.18179848 -136.8416748 -0.19898987 C-135.70411743 -0.20631638 -134.56656006 -0.21364288 -133.39453125 -0.22119141 C-132.19566284 -0.2326973 -130.99679443 -0.24420319 -129.76159668 -0.25605774 C-126.46722419 -0.2865091 -123.1728763 -0.31253411 -119.8784523 -0.3362546 C-117.11638959 -0.35672041 -114.3543565 -0.38025302 -111.59231853 -0.40379179 C-105.05636732 -0.45945893 -98.52039049 -0.51014252 -91.984375 -0.55761719 C-85.28689938 -0.60633747 -78.58952039 -0.66267545 -71.89214039 -0.72303832 C-66.11606549 -0.77485461 -60.33996511 -0.82207474 -54.56382275 -0.86572587 C-51.12647531 -0.8917268 -47.6891603 -0.91925635 -44.25186157 -0.9510994 C-29.46042042 -1.08307335 -14.75973495 -1.04720567 0 0 Z " fill="#591CC6" transform="translate(217,22)"/>
<path d="M0 0 C0.66 0 1.32 0 2 0 C1.78843388 1.17964561 1.78843388 1.17964561 1.57259369 2.38312244 C0.23223708 10.35297729 -0.29407658 18.02987355 -0.28710938 26.10229492 C-0.29394241 27.33968414 -0.30077545 28.57707336 -0.30781555 29.85195923 C-0.32130717 32.51247197 -0.33141143 35.1727256 -0.33552551 37.83324242 C-0.34230868 42.03972554 -0.3641351 46.24605315 -0.38806152 50.45246887 C-0.44085468 60.12386273 -0.47463765 69.79530397 -0.50782013 79.46678162 C-0.53851547 88.36902444 -0.57324575 97.27119871 -0.62413073 106.17335206 C-0.64747949 110.3567748 -0.66121886 114.54008588 -0.66762543 118.72356737 C-0.67493526 121.92276613 -0.69494489 125.1218908 -0.71289062 128.32104492 C-0.71190872 129.48097458 -0.71092682 130.64090424 -0.70991516 131.83598328 C-0.71818832 132.88854309 -0.72646149 133.94110291 -0.73498535 135.02555847 C-0.73791847 135.94337192 -0.74085159 136.86118536 -0.7438736 137.80681133 C-1 140 -1 140 -3 142 C-3.07013088 124.51910232 -3.12300813 107.03824864 -3.15543652 89.55724239 C-3.17089486 81.44021332 -3.19196459 73.32327174 -3.22631836 65.20629883 C-3.25625239 58.13022142 -3.27558251 51.05420738 -3.28226548 43.97806841 C-3.28617098 40.23248577 -3.29532776 36.48708443 -3.31719017 32.74155998 C-3.34141798 28.55671068 -3.34196742 24.37217509 -3.34057617 20.18725586 C-3.351362 18.95007309 -3.36214783 17.71289032 -3.3732605 16.43821716 C-3.35073114 10.18017172 -3.04998818 5.51908468 0 0 Z " fill="#3618C5" transform="translate(60,31)"/>
<path d="M0 0 C1.65 0 3.3 0 5 0 C6.3049866 2.60997319 6.09662809 4.49883197 6.0625 7.41796875 C6.05476563 8.50787109 6.04703125 9.59777344 6.0390625 10.72070312 C6.01324088 13.01237228 5.98720299 15.30403901 5.9609375 17.59570312 C5.92153133 23.18152761 5.9814075 28.50119206 7 34 C7.66 34 8.32 34 9 34 C9.66 35.65 10.32 37.3 11 39 C12.134375 39.144375 13.26875 39.28875 14.4375 39.4375 C18 40 18 40 19 41 C19.04063832 42.66617115 19.042721 44.33388095 19 46 C19.99 46.33 20.98 46.66 22 47 C17.74250636 47.63862405 15.32144149 46.8879838 11.875 44.5 C6.40071957 40.07242711 4.15622136 34.82390137 3 28 C2.92168326 26.08856637 2.89211375 24.17472879 2.90234375 22.26171875 C2.90556641 21.19501953 2.90878906 20.12832031 2.91210938 19.02929688 C2.92467773 17.37510742 2.92467773 17.37510742 2.9375 15.6875 C2.94201172 14.56537109 2.94652344 13.44324219 2.95117188 12.28710938 C2.96292687 9.5246849 2.97935923 6.76237002 3 4 C2.14245117 4.30292969 1.28490234 4.60585938 0.40136719 4.91796875 C-2.78751731 6.04111961 -5.97825581 7.15865441 -9.17041016 8.27246094 C-10.55042467 8.7552554 -11.92966736 9.24026201 -13.30810547 9.72753906 C-15.29194555 10.428391 -17.27844401 11.1211866 -19.265625 11.8125 C-20.45961914 12.23144531 -21.65361328 12.65039062 -22.88378906 13.08203125 C-26 14 -26 14 -30 14 C-30 12.68 -30 11.36 -30 10 C-14.51748252 4.62412587 -14.51748252 4.62412587 -7 5 C-7 4.34 -7 3.68 -7 3 C-3.535 2.505 -3.535 2.505 0 2 C0 1.34 0 0.68 0 0 Z " fill="#2015A9" transform="translate(54,297)"/>
<path d="M0 0 C0.66 0 1.32 0 2 0 C2.08107646 2.75059381 2.14052813 5.49879021 2.1875 8.25 C2.21263672 9.02730469 2.23777344 9.80460938 2.26367188 10.60546875 C2.27333984 11.35957031 2.28300781 12.11367187 2.29296875 12.890625 C2.3086792 13.58188477 2.32438965 14.27314453 2.34057617 14.98535156 C2 17 2 17 -1 21 C-1 16.38 -1 11.76 -1 7 C-1.66 7 -2.32 7 -3 7 C-3 7.99 -3 8.98 -3 10 C-3.9590625 10.433125 -3.9590625 10.433125 -4.9375 10.875 C-7.15206079 11.82823451 -7.15206079 11.82823451 -8 14 C-8.66 14 -9.32 14 -10 14 C-10 14.99 -10 15.98 -10 17 C-10.58652344 17.24621094 -11.17304687 17.49242187 -11.77734375 17.74609375 C-14.34305497 19.19353365 -15.71261038 20.78221101 -17.5625 23.0625 C-20.67024793 26.89008264 -20.67024793 26.89008264 -24 28 C-24.33 28.825 -24.66 29.65 -25 30.5 C-25.33 31.325 -25.66 32.15 -26 33 C-27.485 33.495 -27.485 33.495 -29 34 C-29.2475 34.70125 -29.495 35.4025 -29.75 36.125 C-32.77015142 43.07134826 -40.27661145 48.23247635 -46 53 C-47.01513672 53.87398438 -47.01513672 53.87398438 -48.05078125 54.765625 C-48.69402344 55.17296875 -49.33726563 55.5803125 -50 56 C-50.99 55.67 -51.98 55.34 -53 55 C-51.77083333 53.77083333 -50.54166667 52.54166667 -49.3125 51.3125 C-48.57515625 50.57386719 -47.8378125 49.83523438 -47.078125 49.07421875 C-45.58253842 47.58144342 -44.07595895 46.09965231 -42.5625 44.625 C-40.25666945 42.26292968 -38.06679103 39.84221964 -35.875 37.375 C-31.58601365 32.56874896 -27.08578918 28.04196144 -22.48046875 23.54296875 C-20.13420949 21.13759115 -18.06722356 18.64515702 -16 16 C-12.50537731 12.3112316 -8.74841915 9.01569162 -4.8671875 5.74609375 C-2.91740995 4.03191411 -2.91740995 4.03191411 -1.3828125 1.78515625 C-0.92648438 1.19605469 -0.47015625 0.60695312 0 0 Z " fill="#341ABE" transform="translate(71,240)"/>
<path d="M0 0 C-3.05650339 3.60101112 -5.02380744 4.51229359 -9.6875 5 C-14.65007357 5.67258323 -18.59845752 6.85718038 -23.0625 9.09765625 C-25.02587699 10.01205158 -26.88783942 10.54267952 -29 11 C-29 12.32 -29 13.64 -29 15 C-33.455 15.495 -33.455 15.495 -38 16 C-38.33 17.32 -38.66 18.64 -39 20 C-39.639375 20.12375 -40.27875 20.2475 -40.9375 20.375 C-41.618125 20.58125 -42.29875 20.7875 -43 21 C-43.33 21.66 -43.66 22.32 -44 23 C-45.299375 23.556875 -45.299375 23.556875 -46.625 24.125 C-50.56467168 26.31370649 -52.69939607 28.87424508 -55.484375 32.35546875 C-55.98453125 32.89816406 -56.4846875 33.44085938 -57 34 C-57.66 34 -58.32 34 -59 34 C-59.66 35.32 -60.32 36.64 -61 38 C-61.66 38 -62.32 38 -63 38 C-63.33 38.99 -63.66 39.98 -64 41 C-65.65 41 -67.3 41 -69 41 C-69 40.01 -69 39.02 -69 38 C-67.515 37.505 -67.515 37.505 -66 37 C-64.27227182 35.37099915 -62.63425273 33.71937006 -61 32 C-45.58038705 15.89201147 -23.15988027 -0.47265062 0 0 Z " fill="#8219D8" transform="translate(344,12)"/>
<path d="M0 0 C0.33 0 0.66 0 1 0 C1.02371962 16.17271016 1.04116549 32.3454144 1.05181217 48.51813793 C1.05689447 56.03317549 1.06380316 63.54820193 1.07543945 71.06323242 C1.12806836 105.72131518 1.02991436 140.35309935 0 175 C0.99 175.33 1.98 175.66 3 176 C2.01 176.33 1.02 176.66 0 177 C0 178.32 0 179.64 0 181 C-0.66 181 -1.32 181 -2 181 C-2.0252908 173.63102956 -2.04284179 166.26207026 -2.05493164 158.89306641 C-2.05997003 156.38459861 -2.06680084 153.87613376 -2.07543945 151.36767578 C-2.08752661 147.7685473 -2.09323315 144.16945753 -2.09765625 140.5703125 C-2.10281754 139.44319855 -2.10797882 138.31608459 -2.11329651 137.15481567 C-2.11337204 136.11388763 -2.11344757 135.07295959 -2.11352539 134.00048828 C-2.115746 133.08115509 -2.11796661 132.1618219 -2.12025452 131.21463013 C-2 129 -2 129 -1 127 C-0.89520818 125.3151249 -0.8534351 123.62617036 -0.84178162 121.93807983 C-0.8319928 120.86673294 -0.82220398 119.79538605 -0.81211853 118.6915741 C-0.80348534 116.92104424 -0.80348534 116.92104424 -0.79467773 115.11474609 C-0.78477814 113.87575058 -0.77487854 112.63675507 -0.76467896 111.36021423 C-0.7384556 107.95755372 -0.71660829 104.55491711 -0.69667697 101.15221739 C-0.67483371 97.59808526 -0.64743692 94.04399614 -0.62062073 90.48989868 C-0.57067135 83.75741341 -0.52574087 77.0249043 -0.48259836 70.29237235 C-0.43324515 62.62859823 -0.37831993 54.96486724 -0.32291877 47.30113482 C-0.20906427 31.53412973 -0.1022328 15.76708499 0 0 Z " fill="#4B1FD1" transform="translate(59,44)"/>
<path d="M0 0 C3 1 3 1 4.875 4.0625 C6.85072976 8.27332174 8.28264031 12.6365298 9.6875 17.0625 C9.90196777 17.73482666 10.11643555 18.40715332 10.33740234 19.09985352 C15.71406908 36.65662284 13.92236787 56.53816944 9 74 C8.01 74.99 8.01 74.99 7 76 C6.34 76 5.68 76 5 76 C5.30744141 74.62328125 5.30744141 74.62328125 5.62109375 73.21875 C5.89050781 71.9915625 6.15992188 70.764375 6.4375 69.5 C6.70433594 68.2934375 6.97117187 67.086875 7.24609375 65.84375 C8.70572067 58.40192156 9.22733345 51.06047825 9.5625 43.5 C9.60568359 42.5821875 9.64886719 41.664375 9.69335938 40.71875 C9.79833456 38.47927939 9.90049248 36.23971908 10 34 C9.34 34 8.68 34 8 34 C8.33 33.01 8.66 32.02 9 31 C8.75970715 28.93386543 8.75970715 28.93386543 8.1875 26.75 C7.99800781 25.95722656 7.80851562 25.16445312 7.61328125 24.34765625 C7.074022 22.28335809 6.47883801 20.23383992 5.875 18.1875 C5 15 5 15 5 11 C4.01 10.67 3.02 10.34 2 10 C1.34 6.7 0.68 3.4 0 0 Z " fill="#8425DF" transform="translate(320,205)"/>
<path d="M0 0 C1 3 1 3 -0.625 6.5 C-2.17961421 9.08562572 -2.95341503 9.97227085 -5.625 11.5625 C-8.30493725 12.82107747 -8.30493725 12.82107747 -8.875 15.9375 C-10.50290453 20.36901789 -12.8403197 20.92015985 -17 23 C-19.1385485 25.1385485 -19.42655063 26.13275314 -20 29 C-20.99 29 -21.98 29 -23 29 C-23.2475 29.969375 -23.495 30.93875 -23.75 31.9375 C-24.1625 32.948125 -24.575 33.95875 -25 35 C-26.32303717 35.3721042 -27.65737935 35.70630173 -29 36 C-29.33 36.825 -29.66 37.65 -30 38.5 C-30.33 39.325 -30.66 40.15 -31 41 C-32.32488113 41.36548445 -33.66018514 41.6937566 -35 42 C-37.7295585 44.47906969 -37.7295585 44.47906969 -40 47 C-40.99 46.67 -41.98 46.34 -43 46 C-42.01 45.505 -42.01 45.505 -41 45 C-40.69682861 44.39075684 -40.39365723 43.78151367 -40.08129883 43.15380859 C-38.8952283 40.79130821 -37.59024707 39.37576437 -35.69921875 37.5390625 C-35.05146484 36.90226562 -34.40371094 36.26546875 -33.73632812 35.609375 C-33.06021484 34.95453125 -32.38410156 34.2996875 -31.6875 33.625 C-27.19486039 29.25001438 -22.95027838 24.8722464 -19 20 C-16.56813708 17.5073405 -14.08875911 15.08420736 -11.5625 12.6875 C-8.88355765 9.87787754 -6.66784797 6.93320133 -4.4296875 3.76953125 C-3 2 -3 2 0 0 Z " fill="#2819B8" transform="translate(131,254)"/>
<path d="M0 0 C0.99 0 1.98 0 3 0 C3.33 0.99 3.66 1.98 4 3 C2.10022146 5.64980932 -0.04611983 7.99684797 -2.21484375 10.4296875 C-4.20223788 13.29118714 -4.48037372 14.59587017 -4 18 C-1.93968092 20.06031908 2.44587165 19.18561293 5.28344727 19.20532227 C6.15166107 19.21522186 7.01987488 19.22512146 7.91439819 19.23532104 C10.79837267 19.26703368 13.68236365 19.29173188 16.56640625 19.31640625 C18.56038351 19.33696736 20.55435632 19.3579636 22.54832458 19.37937927 C27.80740776 19.43468707 33.06653083 19.4840578 38.32568359 19.53222656 C43.68786182 19.58237818 49.04998181 19.63809726 54.41210938 19.69335938 C64.94135655 19.80104738 75.4706542 19.90246856 86 20 C86 20.33 86 20.66 86 21 C84.91085297 21.01030746 83.82170593 21.02061493 82.69955444 21.03123474 C72.42949975 21.12904075 62.15950467 21.23178156 51.88954735 21.33933926 C46.60981667 21.39447588 41.33008037 21.44788092 36.05029297 21.49731445 C30.95390739 21.54509478 25.85758722 21.59744223 20.76128006 21.65294075 C18.81807715 21.67330247 16.87485635 21.69202555 14.93162155 21.70907402 C12.20744116 21.73325531 9.48338293 21.76329057 6.75927734 21.79467773 C5.95798401 21.8004332 5.15669067 21.80618866 4.33111572 21.81211853 C0.11834489 21.86719854 -3.84995855 22.17564628 -8 23 C-8.08142927 21.2507786 -8.13938541 19.50045458 -8.1875 17.75 C-8.22230469 16.77546875 -8.25710937 15.8009375 -8.29296875 14.796875 C-7.95558151 11.57595152 -7.07957916 10.41231182 -5 8 C-4.28837557 6.35202764 -3.60968047 4.68834592 -3 3 C-2.01 3 -1.02 3 0 3 C0 2.01 0 1.02 0 0 Z " fill="#30188C" transform="translate(147,261)"/>
<path d="M0 0 C1.32 0 2.64 0 4 0 C3.01 2.97 2.02 5.94 1 9 C-0.65 9 -2.3 9 -4 9 C-4.08765625 9.7528125 -4.1753125 10.505625 -4.265625 11.28125 C-5.14180967 14.5249975 -6.15500124 15.4318055 -8.75 17.5 C-11.13849764 19.46077023 -13.3366022 21.34501725 -15.5 23.5625 C-18.21987913 26.21438215 -21.11003959 28.3187845 -24.23046875 30.47265625 C-26.18652539 32.16099653 -26.86499707 33.71562701 -28 36 C-30.625 36.75 -30.625 36.75 -33 37 C-30.34941879 32.778704 -27.63038718 29.46153196 -24 26 C-19.73291208 21.84547315 -15.71868538 17.5699192 -11.8359375 13.0546875 C-9.24946038 10.16003438 -6.48671205 7.46158947 -3.69921875 4.76171875 C-1.80910864 2.90690694 -1.80910864 2.90690694 0 0 Z " fill="#7122E1" transform="translate(265,111)"/>
<path d="M0 0 C0.66 0.33 1.32 0.66 2 1 C1.99333817 1.70299728 1.98667633 2.40599457 1.97981262 3.1302948 C1.91962222 9.76567501 1.87398546 16.40097868 1.84456348 23.03657055 C1.82892861 26.44775761 1.80773086 29.85871849 1.77368164 33.26977539 C1.73475509 37.19414534 1.7202727 41.11842471 1.70703125 45.04296875 C1.69154739 46.26396774 1.67606354 47.48496674 1.66011047 48.7429657 C1.65988388 49.8837709 1.65965729 51.02457611 1.65942383 52.19995117 C1.65276199 53.20144699 1.64610016 54.20294281 1.63923645 55.23478699 C2.06661691 58.51061133 3.01300276 60.37645471 5 63 C7.76170144 63.92056715 9.52178855 64.14800149 12.37963867 64.20532227 C13.26032516 64.22526749 14.14101166 64.24521271 15.04838562 64.26576233 C15.99534805 64.28247482 16.94231049 64.29918732 17.91796875 64.31640625 C18.89034988 64.33718735 19.86273102 64.35796844 20.86457825 64.37937927 C23.97214665 64.44478748 27.07979985 64.50371929 30.1875 64.5625 C32.29362858 64.60569351 34.39974856 64.64930807 36.50585938 64.69335938 C41.67048591 64.80045999 46.83519778 64.90175219 52 65 C52 65.33 52 65.66 52 66 C45.39878816 66.24464489 38.79710106 66.45697882 32.1940918 66.64697266 C29.94841052 66.71539208 27.7029411 66.7911815 25.45776367 66.87451172 C22.22862832 66.99307763 18.99965635 67.08503549 15.76953125 67.171875 C14.76727005 67.21439392 13.76500885 67.25691284 12.7323761 67.30072021 C8.48318971 67.39252959 5.72678714 67.36758624 1.8894043 65.42675781 C-2.77412652 59.43690171 -1.04243165 50.25704651 -0.87890625 43.06640625 C-0.85529526 41.83333237 -0.83168427 40.60025848 -0.80735779 39.32981873 C-0.73103529 35.40725281 -0.64687595 31.48490013 -0.5625 27.5625 C-0.50861211 24.89650603 -0.45650774 22.2304809 -0.40429688 19.56445312 C-0.27546277 13.042838 -0.14020099 6.52138014 0 0 Z " fill="#3518AA" transform="translate(123,88)"/>
<path d="M0 0 C0.66 0 1.32 0 2 0 C7.67123709 17.01371127 -0.69361425 37.78834441 -8 53 C-9.32 52.67 -10.64 52.34 -12 52 C-11.67 49.69 -11.34 47.38 -11 45 C-10.34 45 -9.68 45 -9 45 C-8.67 44.01 -8.34 43.02 -8 42 C-7.34 42 -6.68 42 -6 42 C-5.67 39.69 -5.34 37.38 -5 35 C-4.34 35 -3.68 35 -3 35 C-3.04125 34.175 -3.0825 33.35 -3.125 32.5 C-3.00829059 29.23213655 -2.36052757 26.53872242 -1.51171875 23.40234375 C0.10969676 15.79035492 0.15213622 7.75894722 0 0 Z " fill="#841AD4" transform="translate(312,92)"/>
<path d="M0 0 C0.99 0 1.98 0 3 0 C2.855625 1.30195313 2.71125 2.60390625 2.5625 3.9453125 C2.37483215 5.67185676 2.18734149 7.39842029 2 9.125 C1.90460938 9.9809375 1.80921875 10.836875 1.7109375 11.71875 C1.23154791 16.17022474 0.88234542 20.51441925 1 25 C2.32 25 3.64 25 5 25 C5.33 22.69 5.66 20.38 6 18 C7.32 18 8.64 18 10 18 C10 17.34 10 16.68 10 16 C12.31 16.33 14.62 16.66 17 17 C14.6875 19.5 14.6875 19.5 12 22 C11.01 22 10.02 22 9 22 C8.74089844 22.59296875 8.48179688 23.1859375 8.21484375 23.796875 C6.91255529 26.15858141 5.60701522 27.50886446 3.5625 29.25 C2.96566406 29.77078125 2.36882812 30.2915625 1.75390625 30.828125 C0 32 0 32 -3 32 C-3.68209297 21.21282599 -1.66777225 10.6172629 0 0 Z " fill="#311BAF" transform="translate(106,201)"/>
<path d="M0 0 C3.125 -0.1875 3.125 -0.1875 6 0 C4.625 1.5 4.625 1.5 3 3 C2.34 3 1.68 3 1 3 C0.75765625 3.58652344 0.5153125 4.17304688 0.265625 4.77734375 C-1.24091053 7.42308052 -2.83557002 8.71170351 -5.25 10.5625 C-6.57451172 11.59117187 -6.57451172 11.59117187 -7.92578125 12.640625 C-8.94027344 13.41921875 -9.95476562 14.1978125 -11 15 C-12.85606321 16.44354848 -14.70873014 17.89131388 -16.55957031 19.34155273 C-17.7925024 20.30728542 -19.02746893 21.27042751 -20.26464844 22.23071289 C-22.99170717 24.35906457 -25.64454462 26.45880979 -28 29 C-28.66 28.67 -29.32 28.34 -30 28 C-29.67 26.35 -29.34 24.7 -29 23 C-28.01 23.33 -27.02 23.66 -26 24 C-26 23.34 -26 22.68 -26 22 C-24.68 22 -23.36 22 -22 22 C-22 20.68 -22 19.36 -22 18 C-21.34 18 -20.68 18 -20 18 C-19.67 17.01 -19.34 16.02 -19 15 C-17.35 14.67 -15.7 14.34 -14 14 C-13.67 12.35 -13.34 10.7 -13 9 C-12.67 9.66 -12.34 10.32 -12 11 C-11.34 11 -10.68 11 -10 11 C-10 10.34 -10 9.68 -10 9 C-9.34 9 -8.68 9 -8 9 C-7.67 7.02 -7.34 5.04 -7 3 C-6.21625 3.061875 -5.4325 3.12375 -4.625 3.1875 C-3.75875 3.125625 -2.8925 3.06375 -2 3 C-1.34 2.01 -0.68 1.02 0 0 Z " fill="#391EBC" transform="translate(94,191)"/>
<path d="M0 0 C0.66 0.33 1.32 0.66 2 1 C2 2.32 2 3.64 2 5 C0.33720673 6.0064275 -1.32983484 7.00585407 -3 8 C-3.67349161 9.66392045 -4.3409159 11.33032028 -5 13 C-7.0625 13.6875 -7.0625 13.6875 -9 14 C-9.33 14.66 -9.66 15.32 -10 16 C-5.545 15.505 -5.545 15.505 -1 15 C-1 14.34 -1 13.68 -1 13 C1.64 13 4.28 13 7 13 C7.33 13.66 7.66 14.32 8 15 C-7.74487472 20.74031891 -7.74487472 20.74031891 -15 20 C-14.62145648 14.57420948 -13.01613356 12.55975475 -9 9 C-8.113125 8.071875 -7.22625 7.14375 -6.3125 6.1875 C-4 4 -4 4 -2 4 C-1.34 2.68 -0.68 1.36 0 0 Z " fill="#251BB5" transform="translate(16,297)"/>
<path d="M0 0 C-3.17753225 1.86617512 -5.48898283 2.24651967 -9.15489197 2.23377991 C-10.19651993 2.23508408 -11.23814789 2.23638824 -12.31134033 2.23773193 C-14.01722321 2.22458954 -14.01722321 2.22458954 -15.75756836 2.21118164 C-16.95956375 2.2098674 -18.16155914 2.20855316 -19.39997864 2.2071991 C-22.01157377 2.20293399 -24.62285695 2.19503145 -27.23438835 2.18089485 C-31.3652875 2.15860504 -35.49614024 2.15053458 -39.62709045 2.14439392 C-46.16236561 2.13301635 -52.69757185 2.11229406 -59.23280865 2.08749622 C-70.93256144 2.04317487 -82.63233791 2.00995742 -94.33215243 1.98725218 C-98.43697722 1.97885476 -102.54173333 1.96483949 -106.64652431 1.94627964 C-109.80201772 1.93311563 -112.9575271 1.92625158 -116.11303711 1.91821289 C-117.24826813 1.91147552 -118.38349915 1.90473816 -119.5531311 1.89779663 C-120.59757889 1.89628098 -121.64202667 1.89476532 -122.71812439 1.89320374 C-124.07504599 1.88792459 -124.07504599 1.88792459 -125.45938015 1.8825388 C-128.06346371 2.00293414 -130.46122397 2.42280648 -133 3 C-132 1 -132 1 -129 0 C-127.29425209 -0.10362343 -125.58480879 -0.15058902 -123.87597656 -0.16494751 C-122.81600464 -0.17618149 -121.75603271 -0.18741547 -120.66394043 -0.19898987 C-119.50124634 -0.20631638 -118.33855225 -0.21364288 -117.140625 -0.22119141 C-115.91605591 -0.2326973 -114.69148682 -0.24420319 -113.42980957 -0.25605774 C-110.07039763 -0.28648491 -106.71100928 -0.31250437 -103.35154724 -0.3362546 C-100.5482109 -0.35667441 -97.74490446 -0.38021417 -94.94159317 -0.40379179 C-88.32958097 -0.45939978 -81.71754391 -0.51012737 -75.10546875 -0.55761719 C-68.28043993 -0.60670188 -61.45549865 -0.66300792 -54.63055801 -0.72303832 C-48.77320156 -0.77435971 -42.91582268 -0.82169971 -37.05840683 -0.86572587 C-33.55897567 -0.89203852 -30.05957073 -0.91975816 -26.56018066 -0.9510994 C-22.65994648 -0.98577668 -18.75968062 -1.01211332 -14.859375 -1.03759766 C-13.69668091 -1.04897263 -12.53398682 -1.0603476 -11.33605957 -1.07206726 C-10.27608765 -1.07766159 -9.21611572 -1.08325592 -8.12402344 -1.08901978 C-7.20151794 -1.09601709 -6.27901245 -1.10301441 -5.32855225 -1.11022377 C-3 -1 -3 -1 0 0 Z " fill="#38127B" transform="translate(201,22)"/>
<path d="M0 0 C0.66 0.66 1.32 1.32 2 2 C-1.3 4.64 -4.6 7.28 -8 10 C-5.215625 11.1446875 -5.215625 11.1446875 -2.375 12.3125 C1.84063838 14.06652448 5.96295652 15.86933816 10 18 C9.34 18.66 8.68 19.32 8 20 C5.9375 19.6875 5.9375 19.6875 3 19 C0.66503148 18.72933756 -1.67150014 18.50150587 -4.01171875 18.28125 C-6 18 -6 18 -8 17 C-8 15.68 -8 14.36 -8 13 C-9.65 12.67 -11.3 12.34 -13 12 C-12.6875 10.0625 -12.6875 10.0625 -12 8 C-11.01 7.67 -10.02 7.34 -9 7 C-9 6.34 -9 5.68 -9 5 C-8.01 5 -7.02 5 -6 5 C-6 4.01 -6 3.02 -6 2 C-4.02 1.34 -2.04 0.68 0 0 Z " fill="#771AD2" transform="translate(286,161)"/>
<path d="M0 0 C0.99 0.99 1.98 1.98 3 3 C1.37660195 4.70884005 -0.29319053 6.37446717 -2 8 C-2.66 8 -3.32 8 -4 8 C-4 9.32 -4 10.64 -4 12 C-5.32 12.33 -6.64 12.66 -8 13 C-8 13.66 -8 14.32 -8 15 C-8.8353125 15.37125 -8.8353125 15.37125 -9.6875 15.75 C-14.51349792 18.35864753 -17.36998537 21.21815522 -20 26 C-21.5625 28.3125 -21.5625 28.3125 -23 30 C-23.66 30 -24.32 30 -25 30 C-25 30.66 -25 31.32 -25 32 C-26.25 33.6875 -26.25 33.6875 -28 35 C-30.109375 34.58203125 -30.109375 34.58203125 -32 34 C-26.61852333 27.89059412 -21.09401127 22.00624286 -15.26171875 16.32421875 C-12.99545214 13.99532647 -11.00851517 11.55169852 -9 9 C-7.3540349 7.31288577 -5.68762851 5.6454378 -4 4 C-3.236875 3.236875 -2.47375 2.47375 -1.6875 1.6875 C-1.130625 1.130625 -0.57375 0.57375 0 0 Z " fill="#3116A0" transform="translate(164,219)"/>
<path d="M0 0 C6.8460879 -0.5794215 11.1840792 0.47821959 17 4.0625 C17.69061523 4.47008545 18.38123047 4.8776709 19.09277344 5.29760742 C26.07437498 9.49263503 32.29417172 14.1805601 38 20 C36.68 20.33 35.36 20.66 34 21 C33.566875 20.360625 33.13375 19.72125 32.6875 19.0625 C31.08760823 16.73253997 31.08760823 16.73253997 28 16 C28 15.34 28 14.68 28 14 C25.525 13.505 25.525 13.505 23 13 C23 12.34 23 11.68 23 11 C21.02 11.33 19.04 11.66 17 12 C17 10.35 17 8.7 17 7 C16.27554688 6.90203125 15.55109375 6.8040625 14.8046875 6.703125 C8.88443702 5.78745959 4.62974842 4.87897841 0 1 C0 0.67 0 0.34 0 0 Z " fill="#801AD0" transform="translate(237,28)"/>
<path d="M0 0 C12.54 0 25.08 0 38 0 C38 0.66 38 1.32 38 2 C39.32 2.33 40.64 2.66 42 3 C28.14 3 14.28 3 0 3 C0 2.01 0 1.02 0 0 Z " fill="#45179A" transform="translate(193,209)"/>
<path d="M0 0 C2.64 0.33 5.28 0.66 8 1 C3.04773931 3.60500496 -2.22819064 5.28539205 -7.5 7.125 C-8.54542969 7.49753906 -9.59085938 7.87007813 -10.66796875 8.25390625 C-11.67472656 8.60582031 -12.68148437 8.95773437 -13.71875 9.3203125 C-14.63591797 9.64273926 -15.55308594 9.96516602 -16.49804688 10.29736328 C-19 11 -19 11 -23 11 C-23 9.68 -23 8.36 -23 7 C-7.51748252 1.62412587 -7.51748252 1.62412587 0 2 C0 1.34 0 0.68 0 0 Z " fill="#281CA4" transform="translate(47,300)"/>
<path d="M0 0 C0.66 0 1.32 0 2 0 C2 13.53 2 27.06 2 41 C2.99 41.33 3.98 41.66 5 42 C3.515 42.495 3.515 42.495 2 43 C2 44.32 2 45.64 2 47 C1.34 47 0.68 47 0 47 C0 31.49 0 15.98 0 0 Z " fill="#5740CA" transform="translate(57,178)"/>
<path d="M0 0 C3.60711926 1.98095894 4.01296167 5.89017597 5.15234375 9.62109375 C6.33197024 14.98136542 7.44971068 21.95995365 4.90625 27.046875 C4.24625 26.716875 3.58625 26.386875 2.90625 26.046875 C2.94105469 25.36882812 2.97585938 24.69078125 3.01171875 23.9921875 C3.21168812 17.11705003 2.25837019 11.50120482 -0.09375 5.046875 C-2.33737573 4.8184201 -2.33737573 4.8184201 -4.21875 7.046875 C-5.146875 8.036875 -5.146875 8.036875 -6.09375 9.046875 C-7.08375 8.386875 -8.07375 7.726875 -9.09375 7.046875 C-8.02658928 5.84482036 -6.93936663 4.66055167 -5.84375 3.484375 C-5.24046875 2.82308594 -4.6371875 2.16179687 -4.015625 1.48046875 C-2.09375 0.046875 -2.09375 0.046875 0 0 Z " fill="#8321D9" transform="translate(279.09375,98.953125)"/>
<path d="M0 0 C0.66 0.66 1.32 1.32 2 2 C-0.8863241 6.51713134 -4.05674468 10.5751666 -7.5625 14.625 C-11.27137194 18.90524508 -11.27137194 18.90524508 -14.71484375 23.3984375 C-15.35099609 24.19121094 -15.35099609 24.19121094 -16 25 C-16.66 25 -17.32 25 -18 25 C-17.49396008 22.83125748 -17.00016187 21.00032373 -16 19 C-15.34 19 -14.68 19 -14 19 C-13.34 17.35 -12.68 15.7 -12 14 C-11.34 14 -10.68 14 -10 14 C-10 12.35 -10 10.7 -10 9 C-9.21625 8.9175 -8.4325 8.835 -7.625 8.75 C-4.87716848 8.27676847 -4.87716848 8.27676847 -3.75 6.0625 C-3.5025 5.381875 -3.255 4.70125 -3 4 C-2.67 3.34 -2.34 2.68 -2 2 C-1.34 2 -0.68 2 0 2 C0 1.34 0 0.68 0 0 Z " fill="#4023BD" transform="translate(169,237)"/>
<path d="M0 0 C0.66 0 1.32 0 2 0 C2.08107646 2.75059381 2.14052813 5.49879021 2.1875 8.25 C2.22520508 9.41595703 2.22520508 9.41595703 2.26367188 10.60546875 C2.27817383 11.73662109 2.27817383 11.73662109 2.29296875 12.890625 C2.31653442 13.92751465 2.31653442 13.92751465 2.34057617 14.98535156 C2 17 2 17 -1 21 C-1 16.38 -1 11.76 -1 7 C-1.66 7 -2.32 7 -3 7 C-3 7.99 -3 8.98 -3 10 C-4.65 10.33 -6.3 10.66 -8 11 C-8 10.01 -8 9.02 -8 8 C-6.36395804 6.62926214 -4.69321939 5.29944744 -3 4 C-2.443125 3.2575 -1.88625 2.515 -1.3125 1.75 C-0.879375 1.1725 -0.44625 0.595 0 0 Z " fill="#2E25B9" transform="translate(71,240)"/>
<path d="M0 0 C1.65 0 3.3 0 5 0 C5.30256653 6.21316848 4.41687252 10.98302796 2.3125 16.8125 C2.06822266 17.56208984 1.82394531 18.31167969 1.57226562 19.08398438 C0.26065611 22.79965792 -0.46856386 24.6050655 -3.70703125 27.01171875 C-4.84205078 27.50091797 -4.84205078 27.50091797 -6 28 C-6 26.35 -6 24.7 -6 23 C-5.01 23.33 -4.02 23.66 -3 24 C-2.81824219 23.02160156 -2.81824219 23.02160156 -2.6328125 22.0234375 C-1.19053588 14.50141022 -1.19053588 14.50141022 0.1875 10.875 C1.30270926 6.92887494 0.69395943 4.0249647 0 0 Z " fill="#841DD5" transform="translate(359,10)"/>
<path d="M0 0 C0.33 0 0.66 0 1 0 C1.19335938 1.13179688 1.38671875 2.26359375 1.5859375 3.4296875 C1.84854286 4.91153202 2.11158648 6.39329892 2.375 7.875 C2.50132813 8.62136719 2.62765625 9.36773437 2.7578125 10.13671875 C3.45268694 14.50990532 3.45268694 14.50990532 6 18 C9.693507 18.20146402 12.47940432 18.17353189 16 17 C16.33 17.99 16.66 18.98 17 20 C13.32751381 22.35039116 10.28842905 22.51756902 6 22 C1.68033946 19.84016973 1.68033946 19.84016973 0 17 C-1.14549798 11.37923351 -1.74870437 5.54434177 0 0 Z " fill="#231CBD" transform="translate(72,283)"/>
<path d="M0 0 C1.32 0 2.64 0 4 0 C3.01 2.97 2.02 5.94 1 9 C-0.65 9 -2.3 9 -4 9 C-4.061875 9.598125 -4.12375 10.19625 -4.1875 10.8125 C-5.33554682 13.90339529 -7.10547052 14.5880344 -10 16 C-10.66 16 -11.32 16 -12 16 C-11.47428335 11.95105948 -9.46350492 10.18069025 -6.5625 7.4375 C-4.00340357 5.00163453 -1.96681053 2.95021579 0 0 Z " fill="#7C1BD9" transform="translate(265,111)"/>
<path d="M0 0 C0.99 0.33 1.98 0.66 3 1 C-1.24458663 7.65628358 -5.79654068 14.05141523 -11 20 C-11.33 20 -11.66 20 -12 20 C-12 18.02 -12 16.04 -12 14 C-11.34 13.67 -10.68 13.34 -10 13 C-9.27840576 11.35636866 -8.60648579 9.68949614 -8 8 C-7.01 8 -6.02 8 -5 8 C-5 7.01 -5 6.02 -5 5 C-2.5 2.3125 -2.5 2.3125 0 0 Z " fill="#7B17C5" transform="translate(344,55)"/>
<path d="M0 0 C1.65 0 3.3 0 5 0 C6.30475618 2.60951236 6.11301572 4.52701285 6.09765625 7.4453125 C6.09443359 8.52167969 6.09121094 9.59804688 6.08789062 10.70703125 C6.07951172 11.83496094 6.07113281 12.96289062 6.0625 14.125 C6.05798828 15.26066406 6.05347656 16.39632813 6.04882812 17.56640625 C6.03701615 20.37765638 6.02054507 23.1888023 6 26 C5.67 26 5.34 26 5 26 C5 22.7 5 19.4 5 16 C4.34 16 3.68 16 3 16 C3 12.04 3 8.08 3 4 C1.02 4 -0.96 4 -3 4 C-3 3.34 -3 2.68 -3 2 C-2.01 2 -1.02 2 0 2 C0 1.34 0 0.68 0 0 Z " fill="#2621C1" transform="translate(54,297)"/>
<path d="M0 0 C2.475 0.495 2.475 0.495 5 1 C5.06058594 1.62648438 5.12117187 2.25296875 5.18359375 2.8984375 C5.26738281 3.71570313 5.35117188 4.53296875 5.4375 5.375 C5.55931641 6.59316406 5.55931641 6.59316406 5.68359375 7.8359375 C5.89090114 10.04272805 5.89090114 10.04272805 7 12 C7.16796875 14.05859375 7.16796875 14.05859375 7.1875 16.4375 C7.20167969 17.21996094 7.21585938 18.00242187 7.23046875 18.80859375 C7 21 7 21 5 24 C4.34 23.67 3.68 23.34 3 23 C3.33 22.34 3.66 21.68 4 21 C4.54416676 15.55833241 3.44145982 12.54126369 0.890625 7.93359375 C-0.34840297 5.24359881 -0.2909316 2.90931602 0 0 Z " fill="#781CD8" transform="translate(222,88)"/>
<path d="M0 0 C0.66 0.66 1.32 1.32 2 2 C-3.07833396 3.8368442 -6.57274955 4.07537131 -11.88671875 3.09375 C-14.04107243 2.82576393 -14.04107243 2.82576393 -15.91015625 3.9609375 C-18.63691953 5.31667401 -20.72376559 5.1970532 -23.75 5.125 C-24.73484375 5.10695313 -25.7196875 5.08890625 -26.734375 5.0703125 C-27.85585938 5.03550781 -27.85585938 5.03550781 -29 5 C-22.61247906 -1.38752094 -8.4034339 -0.90246082 0 0 Z " fill="#671DBF" transform="translate(362,8)"/>
<path d="M0 0 C2.31 0 4.62 0 7 0 C6.01 0.495 6.01 0.495 5 1 C4.67 1.99 4.34 2.98 4 4 C2.28561252 5.56420147 0.5043823 7.05612002 -1.3125 8.5 C-2.27800781 9.2734375 -3.24351562 10.046875 -4.23828125 10.84375 C-6.47399318 12.58931292 -8.72126627 14.31124721 -11 16 C-11.33 14.68 -11.66 13.36 -12 12 C-11.40445313 11.74476563 -10.80890625 11.48953125 -10.1953125 11.2265625 C-7.78516269 9.87996634 -6.57123498 8.53303717 -4.875 6.375 C-3.3671875 4.4609375 -3.3671875 4.4609375 -2 3 C-1.34 3 -0.68 3 0 3 C0 2.01 0 1.02 0 0 Z " fill="#391CAF" transform="translate(134,202)"/>
<path d="M0 0 C2.77348994 0.07924257 4.47358885 0.48470043 6.48046875 2.44921875 C10.05932028 7.07064888 10.05932028 7.07064888 9.8125 10.9375 C9.544375 11.618125 9.27625 12.29875 9 13 C6.03 12.505 6.03 12.505 3 12 C2.814375 10.9790625 2.814375 10.9790625 2.625 9.9375 C1.90899123 6.5722588 0.97054875 3.29986575 0 0 Z " fill="#8B20E5" transform="translate(310,193)"/>
<path d="M0 0 C2.31 0 4.62 0 7 0 C7 0.66 7 1.32 7 2 C7.639375 2.226875 8.27875 2.45375 8.9375 2.6875 C11 4 11 4 11.75 6.625 C11.87375 7.800625 11.87375 7.800625 12 9 C9.525 8.01 9.525 8.01 7 7 C7 6.01 7 5.02 7 4 C6.45730469 4.2165625 5.91460937 4.433125 5.35546875 4.65625 C4.64003906 4.9346875 3.92460937 5.213125 3.1875 5.5 C2.12595703 5.91765625 2.12595703 5.91765625 1.04296875 6.34375 C-1 7 -1 7 -4 7 C-4 5.35 -4 3.7 -4 2 C-2.68 2 -1.36 2 0 2 C0 1.34 0 0.68 0 0 Z " fill="#891BEC" transform="translate(261,57)"/>
<path d="M0 0 C2.97 0.495 2.97 0.495 6 1 C5.34 4.3 4.68 7.6 4 11 C3.01 10.34 2.02 9.68 1 9 C1 7.68 1 6.36 1 5 C-1.31 6.98 -3.62 8.96 -6 11 C-6.66 10.67 -7.32 10.34 -8 10 C-8 9.34 -8 8.68 -8 8 C-4.53846154 5 -4.53846154 5 -2 5 C-1.34 3.35 -0.68 1.7 0 0 Z " fill="#3C1CC7" transform="translate(107,180)"/>
<path d="M0 0 C0.99 0.66 1.98 1.32 3 2 C2.02417969 2.75925781 1.04835937 3.51851563 0.04296875 4.30078125 C-1.2422705 5.30458124 -2.52742216 6.30849338 -3.8125 7.3125 C-4.77639648 8.06176758 -4.77639648 8.06176758 -5.75976562 8.82617188 C-6.38173828 9.31279297 -7.00371094 9.79941406 -7.64453125 10.30078125 C-8.21534424 10.74591064 -8.78615723 11.19104004 -9.37426758 11.6496582 C-11.05248874 12.9896552 -11.05248874 12.9896552 -12.5847168 14.66870117 C-14 16 -14 16 -16 16 C-14.50592885 11.2687747 -14.50592885 11.2687747 -12 9.9375 C-11.34 9.628125 -10.68 9.31875 -10 9 C-9.31731862 7.67479497 -8.6492959 6.34187818 -8 5 C-7.01 4.67 -6.02 4.34 -5 4 C-3.97980427 3.0206121 -2.97850195 2.02104551 -2 1 C-1.34 0.67 -0.68 0.34 0 0 Z " fill="#671ABE" transform="translate(246,111)"/>
<path d="M0 0 C0.99 0.33 1.98 0.66 3 1 C-0.65873411 4.761636 -4.38861558 8.44609619 -8.25 12 C-9.21679688 12.8971875 -9.21679688 12.8971875 -10.203125 13.8125 C-10.79609375 14.204375 -11.3890625 14.59625 -12 15 C-12.99 14.67 -13.98 14.34 -15 14 C-15 12 -15 12 -12.6875 9.375 C-10 7 -10 7 -7 7 C-6.938125 6.38125 -6.87625 5.7625 -6.8125 5.125 C-6 3 -6 3 -3.5 1.8125 C-2.675 1.544375 -1.85 1.27625 -1 1 C-0.67 0.67 -0.34 0.34 0 0 Z " fill="#3B18A7" transform="translate(159,184)"/>
<path d="M0 0 C-2.43333747 3.08557225 -3.77203778 3.94858724 -7.671875 4.828125 C-9.02932282 4.98627426 -10.38896205 5.12650317 -11.75 5.25 C-12.79607422 5.36601562 -12.79607422 5.36601562 -13.86328125 5.484375 C-15.57388433 5.67183835 -17.28679271 5.83805503 -19 6 C-18 3 -18 3 -16.375 1.875 C-11.05467108 -0.08512118 -5.61071216 -0.11450433 0 0 Z " fill="#7A1BD8" transform="translate(344,12)"/>
<path d="M0 0 C0.66 0 1.32 0 2 0 C4.55189659 7.65568977 3.26276709 17.10770571 2 25 C1.34 25 0.68 25 0 25 C0 16.75 0 8.5 0 0 Z " fill="#9025E9" transform="translate(312,92)"/>
<path d="M0 0 C2.64 0 5.28 0 8 0 C8.33 0.66 8.66 1.32 9 2 C-6.74487472 7.74031891 -6.74487472 7.74031891 -14 7 C-14 6.67 -14 6.34 -14 6 C-11.69 6 -9.38 6 -7 6 C-6.34 4.68 -5.68 3.36 -5 2 C-3.35 2 -1.7 2 0 2 C0 1.34 0 0.68 0 0 Z " fill="#1E1392" transform="translate(15,310)"/>
<path d="M0 0 C1 2 1 2 0.75 4.0625 C0.5025 4.701875 0.255 5.34125 0 6 C-0.99 6.33 -1.98 6.66 -3 7 C-3.309375 7.969375 -3.61875 8.93875 -3.9375 9.9375 C-5 13 -5 13 -7 14.375 C-9 15 -9 15 -11 15 C-12.34882408 15.63474075 -13.6846659 16.29848848 -15 17 C-14.04956626 15.66102417 -13.08940853 14.32894573 -12.125 13 C-11.32449219 11.88625 -11.32449219 11.88625 -10.5078125 10.75 C-10.01023438 10.1725 -9.51265625 9.595 -9 9 C-8.34 9 -7.68 9 -7 9 C-6.773125 8.443125 -6.54625 7.88625 -6.3125 7.3125 C-4.64103234 4.36753316 -2.44723648 2.31843456 0 0 Z " fill="#611EC7" transform="translate(231,148)"/>
<path d="M0 0 C0.99 0.33 1.98 0.66 3 1 C3.66 0.67 4.32 0.34 5 0 C5.309375 1.423125 5.309375 1.423125 5.625 2.875 C6.70833333 6.29166667 6.70833333 6.29166667 10.125 7.375 C11.07375 7.58125 12.0225 7.7875 13 8 C12.67 9.32 12.34 10.64 12 12 C10.02 12 8.04 12 6 12 C5.7525 11.05125 5.505 10.1025 5.25 9.125 C4.3142923 5.91306809 4.3142923 5.91306809 1.875 4.625 C1.25625 4.41875 0.6375 4.2125 0 4 C0 2.68 0 1.36 0 0 Z " fill="#841DE8" transform="translate(267,55)"/>
<path d="M0 0 C6.36734694 0.36734694 6.36734694 0.36734694 9.4375 3.4375 C11 6 11 6 11 8 C12.32 8.33 13.64 8.66 15 9 C14.34 10.32 13.68 11.64 13 13 C12.34 12.319375 11.68 11.63875 11 10.9375 C8.01066497 7.93093537 4.80268054 5.19821266 1.57421875 2.453125 C1.05472656 1.97359375 0.53523438 1.4940625 0 1 C0 0.67 0 0.34 0 0 Z " fill="#7515CA" transform="translate(275,67)"/>
<path d="M0 0 C1.58206057 0.00667536 3.16410534 0.0186375 4.74609375 0.03515625 C5.55240234 0.03966797 6.35871094 0.04417969 7.18945312 0.04882812 C9.18753131 0.06065107 11.18557158 0.07858711 13.18359375 0.09765625 C13.18359375 0.42765625 13.18359375 0.75765625 13.18359375 1.09765625 C8.23359375 1.09765625 3.28359375 1.09765625 -1.81640625 1.09765625 C-1.81640625 1.75765625 -1.81640625 2.41765625 -1.81640625 3.09765625 C-12.70640625 3.09765625 -23.59640625 3.09765625 -34.81640625 3.09765625 C-34.81640625 2.76765625 -34.81640625 2.43765625 -34.81640625 2.09765625 C-33.912854 2.0726001 -33.00930176 2.04754395 -32.07836914 2.02172852 C-28.73676345 1.92678308 -25.39534373 1.82754004 -22.05395508 1.7253418 C-20.60576385 1.68193995 -19.15751971 1.64026881 -17.70922852 1.6003418 C-15.63151066 1.54276563 -13.55406052 1.47903597 -11.4765625 1.4140625 C-10.22496338 1.37740479 -8.97336426 1.34074707 -7.68383789 1.30297852 C-3.96554644 1.03673049 -4.07540561 0.10428366 0 0 Z " fill="#571BB5" transform="translate(203.81640625,21.90234375)"/>
<path d="M0 0 C0.66 0 1.32 0 2 0 C2.66 5.94 3.32 11.88 4 18 C4.66 18 5.32 18 6 18 C6.33 19.32 6.66 20.64 7 22 C4.625 21.5 4.625 21.5 2 20 C-0.53472418 13.48213781 -0.20740273 6.91342431 0 0 Z " fill="#1710B5" transform="translate(57,313)"/>
<path d="M0 0 C0.66 0.66 1.32 1.32 2 2 C1.2690065 3.98626514 0.51456327 5.96391349 -0.25 7.9375 C-0.87648438 9.59072266 -0.87648438 9.59072266 -1.515625 11.27734375 C-3 14 -3 14 -5.171875 14.87890625 C-5.77515625 14.91886719 -6.3784375 14.95882813 -7 15 C-6.45660208 10.43545749 -5.20536179 7.0271824 -3 3 C-2.34 3 -1.68 3 -1 3 C-0.67 2.01 -0.34 1.02 0 0 Z " fill="#7420D0" transform="translate(326,280)"/>
<path d="M0 0 C0.66 1.32 1.32 2.64 2 4 C1.27683594 4.47179687 1.27683594 4.47179687 0.5390625 4.953125 C-3.42970762 7.50959591 -3.42970762 7.50959591 -6.125 11.25 C-6.41375 11.8275 -6.7025 12.405 -7 13 C-9.625 13.75 -9.625 13.75 -12 14 C-9.35691967 9.79064984 -6.63090174 6.44470165 -3 3 C-2.401875 2.401875 -1.80375 1.80375 -1.1875 1.1875 C-0.795625 0.795625 -0.40375 0.40375 0 0 Z " fill="#6415BE" transform="translate(244,134)"/>
<path d="M0 0 C0.66 0.66 1.32 1.32 2 2 C0.40629329 3.36646148 -1.20032982 4.71787166 -2.8125 6.0625 C-4.15248047 7.19365234 -4.15248047 7.19365234 -5.51953125 8.34765625 C-6.33808594 8.89292969 -7.15664063 9.43820313 -8 10 C-8.99 9.67 -9.98 9.34 -11 9 C-11 8.34 -11 7.68 -11 7 C-10.34 7 -9.68 7 -9 7 C-9 6.34 -9 5.68 -9 5 C-8.01 5 -7.02 5 -6 5 C-6 4.01 -6 3.02 -6 2 C-4.02 1.34 -2.04 0.68 0 0 Z " fill="#721BC7" transform="translate(286,161)"/>
<path d="M0 0 C0.33 0.66 0.66 1.32 1 2 C-1.16474211 8.38029253 -1.16474211 8.38029253 -3.9375 10.4375 C-6 11 -6 11 -10 11 C-9.09066991 9.72390677 -8.17217147 8.45434447 -7.25 7.1875 C-6.73953125 6.47980469 -6.2290625 5.77210938 -5.703125 5.04296875 C-3.97517642 2.97022309 -2.21473524 1.52624146 0 0 Z " fill="#451DBF" transform="translate(184,198)"/>
<path d="M0 0 C0.99 0.99 1.98 1.98 3 3 C1.37660195 4.70884005 -0.29319053 6.37446717 -2 8 C-2.66 8 -3.32 8 -4 8 C-4 9.32 -4 10.64 -4 12 C-5.32 12.33 -6.64 12.66 -8 13 C-4.14578588 3.40546697 -4.14578588 3.40546697 0 0 Z " fill="#4A1BC4" transform="translate(164,219)"/>
<path d="M0 0 C0 3.93169105 -1.39419615 5.16427228 -4 8 C-4.66 8 -5.32 8 -6 8 C-6 8.66 -6 9.32 -6 10 C-7.25 11.6875 -7.25 11.6875 -9 13 C-11.109375 12.58203125 -11.109375 12.58203125 -13 12 C-9.67131569 7.82484614 -6.79333736 4.52981694 -2 2 C-1.34 1.34 -0.68 0.68 0 0 Z " fill="#381FC4" transform="translate(145,241)"/>
<path d="M0 0 C0.66 0.33 1.32 0.66 2 1 C2.72870472 3.31470912 3.39239518 5.6505947 4 8 C4.33 8.99 4.66 9.98 5 11 C3.02 11.33 1.04 11.66 -1 12 C-1.02687279 10.18757948 -1.04633715 8.37504767 -1.0625 6.5625 C-1.07410156 5.55316406 -1.08570313 4.54382813 -1.09765625 3.50390625 C-1 1 -1 1 0 0 Z " fill="#3924C6" transform="translate(140,272)"/>
<path d="M0 0 C1.65 1.32 3.3 2.64 5 4 C4.64950425 7.24208567 4.43778819 8.61527704 1.9375 10.8125 C1.298125 11.204375 0.65875 11.59625 0 12 C-0.6875 10.25 -0.6875 10.25 -1 8 C0.4375 5.75 0.4375 5.75 2 4 C0.68 3.67 -0.64 3.34 -2 3 C-1.34 2.01 -0.68 1.02 0 0 Z " fill="#7F1FCA" transform="translate(268,84)"/>
<path d="M0 0 C0.33 0.66 0.66 1.32 1 2 C0.67 2.99 0.34 3.98 0 5 C-0.66 5 -1.32 5 -2 5 C-2.226875 5.78375 -2.45375 6.5675 -2.6875 7.375 C-4 10 -4 10 -6.625 11.3125 C-7.40875 11.539375 -8.1925 11.76625 -9 12 C-9 9 -9 9 -7.03125 6.73828125 C-5.77828125 5.53751953 -5.77828125 5.53751953 -4.5 4.3125 C-3.6646875 3.50425781 -2.829375 2.69601562 -1.96875 1.86328125 C-1.3190625 1.24839844 -0.669375 0.63351562 0 0 Z " fill="#1710A6" transform="translate(49,263)"/>
<path d="M0 0 C1.32 0.66 2.64 1.32 4 2 C3.52949219 2.32613281 3.05898437 2.65226563 2.57421875 2.98828125 C1.95160156 3.42527344 1.32898438 3.86226562 0.6875 4.3125 C0.07261719 4.74175781 -0.54226562 5.17101562 -1.17578125 5.61328125 C-2.94645331 6.95929534 -4.46738009 8.39192803 -6 10 C-6.66 9.67 -7.32 9.34 -8 9 C-7.67 7.35 -7.34 5.7 -7 4 C-6.01 4.33 -5.02 4.66 -4 5 C-4 4.34 -4 3.68 -4 3 C-2.68 3 -1.36 3 0 3 C0 2.01 0 1.02 0 0 Z " fill="#2918A5" transform="translate(72,210)"/>
<path d="M0 0 C2.64 0.33 5.28 0.66 8 1 C5.38668086 2.41554787 2.69281871 3.58131312 -0.0625 4.6875 C-0.73410156 4.95949219 -1.40570313 5.23148437 -2.09765625 5.51171875 C-4 6 -4 6 -7 5 C-6.67 4.01 -6.34 3.02 -6 2 C-4.02 2 -2.04 2 0 2 C0 1.34 0 0.68 0 0 Z " fill="#1C1599" transform="translate(47,300)"/>
<path d="M0 0 C0.66 0.33 1.32 0.66 2 1 C2 5 2 5 0.35546875 6.73828125 C-0.71767578 7.51751953 -0.71767578 7.51751953 -1.8125 8.3125 C-2.87404297 9.11107422 -2.87404297 9.11107422 -3.95703125 9.92578125 C-4.63121094 10.28027344 -5.30539063 10.63476562 -6 11 C-6.99 10.67 -7.98 10.34 -9 10 C-8.43410156 9.44570313 -7.86820313 8.89140625 -7.28515625 8.3203125 C-6.55167969 7.59585937 -5.81820313 6.87140625 -5.0625 6.125 C-4.33160156 5.40570313 -3.60070312 4.68640625 -2.84765625 3.9453125 C-0.94332001 2.12972808 -0.94332001 2.12972808 0 0 Z " fill="#1C12A8" transform="translate(27,285)"/>
<path d="M0 0 C0.33 0.66 0.66 1.32 1 2 C-0.97764782 6.06516496 -3.7373124 8.91367389 -7 12 C-7.99 11.67 -8.98 11.34 -10 11 C-9.34 10.67 -8.68 10.34 -8 10 C-7.7525 9.443125 -7.505 8.88625 -7.25 8.3125 C-5.41130826 4.91092027 -2.78996215 2.66865945 0 0 Z " fill="#1C139F" transform="translate(98,289)"/>
<path d="M0 0 C0.33 0 0.66 0 1 0 C2.09857724 6.1676029 2.11539104 12.18415123 2.0625 18.4375 C2.05798828 19.45521484 2.05347656 20.47292969 2.04882812 21.52148438 C2.03712437 24.01438509 2.02072848 26.50716074 2 29 C1.67 29 1.34 29 1 29 C1 22.4 1 15.8 1 9 C-0.32 9 -1.64 9 -3 9 C-3 8.34 -3 7.68 -3 7 C-2.34 6.67 -1.68 6.34 -1 6 C-0.34227572 2.97065509 -0.34227572 2.97065509 0 0 Z " fill="#7C23DA" transform="translate(331,230)"/>
<path d="M0 0 C2.31 0.33 4.62 0.66 7 1 C4.48169253 4.12270126 3.2738451 4.94523098 -0.75 5.75 C-2.35875 5.87375 -2.35875 5.87375 -4 6 C-4 4.68 -4 3.36 -4 2 C-2.68 2 -1.36 2 0 2 C0 1.34 0 0.68 0 0 Z " fill="#391EC1" transform="translate(116,217)"/>
<path d="M0 0 C1.45823212 -0.0270043 2.91660675 -0.04639787 4.375 -0.0625 C5.18710938 -0.07410156 5.99921875 -0.08570312 6.8359375 -0.09765625 C9 0 9 0 11 1 C11 2.32 11 3.64 11 5 C6.1948447 5.56531239 3.75696103 3.88324916 0 1 C0 0.67 0 0.34 0 0 Z " fill="#891BDD" transform="translate(237,28)"/>
<path d="M0 0 C0.66 0.33 1.32 0.66 2 1 C2 2.32 2 3.64 2 5 C-1.35787751 7.56778868 -4.9814387 8.78508612 -9 10 C-7.38405168 7.95880212 -5.7143618 5.95927063 -4 4 C-3.34 4 -2.68 4 -2 4 C-1.34 2.68 -0.68 1.36 0 0 Z " fill="#1311A5" transform="translate(16,297)"/>
<path d="M0 0 C1 3 1 3 -0.6875 6.625 C-2.63475967 9.84781653 -2.63475967 9.84781653 -5.25 10.9375 C-5.8275 10.958125 -6.405 10.97875 -7 11 C-6.58485103 6.1565954 -4.53791301 4.18412171 -1 1 C-0.67 0.67 -0.34 0.34 0 0 Z " fill="#311DB9" transform="translate(131,254)"/>
<path d="M0 0 C-2.66666667 2.66666667 -5.33333333 5.33333333 -8 8 C-8.66 7.67 -9.32 7.34 -10 7 C-9.1875 4.0625 -9.1875 4.0625 -8 1 C-5.07175348 0.02391783 -3.04386724 -0.08226668 0 0 Z " fill="#6B19BA" transform="translate(263,100)"/>
<path d="M0 0 C0.66 0.33 1.32 0.66 2 1 C2 1.99 2 2.98 2 4 C2.66 4 3.32 4 4 4 C4 7.3 4 10.6 4 14 C3.34 14 2.68 14 2 14 C1.86722656 13.38511719 1.73445313 12.77023438 1.59765625 12.13671875 C1.42105469 11.32847656 1.24445313 10.52023438 1.0625 9.6875 C0.88847656 8.88699219 0.71445312 8.08648437 0.53515625 7.26171875 C0.00113841 4.854599 0.00113841 4.854599 -1 2 C-0.67 1.34 -0.34 0.68 0 0 Z " fill="#8C29E2" transform="translate(327,222)"/>
<path d="M0 0 C2 2 2 2 2 5 C0.02 5.66 -1.96 6.32 -4 7 C-4 7.99 -4 8.98 -4 10 C-5.32 9.67 -6.64 9.34 -8 9 C-5.36 6.03 -2.72 3.06 0 0 Z " fill="#471ABF" transform="translate(173,209)"/>
<path d="M0 0 C0.8353125 1.1446875 0.8353125 1.1446875 1.6875 2.3125 C3.98051259 4.97735248 6.01990573 6.22805206 9 8 C9.33 8.99 9.66 9.98 10 11 C4.65413534 10.40601504 4.65413534 10.40601504 2.1875 8.875 C0.41060583 6.06937763 0.30744876 3.25895683 0 0 Z " fill="#421FB9" transform="translate(122,144)"/>
<path d="M0 0 C-0.66 1.32 -1.32 2.64 -2 4 C-6.29 4 -10.58 4 -15 4 C-10.98917213 -0.01082787 -5.44022738 -0.26537695 0 0 Z " fill="#5919B5" transform="translate(348,9)"/>
<path d="M0 0 C0 0.66 0 1.32 0 2 C0.66 2.33 1.32 2.66 2 3 C-2.53701494 4.45184478 -6.18061476 5.23509196 -11 5 C-10.01 4.67 -9.02 4.34 -8 4 C-7.67 3.01 -7.34 2.02 -7 1 C-4.52260646 0.09162237 -2.66420516 0 0 0 Z " fill="#401E9D" transform="translate(262,338)"/>
<path d="M0 0 C0.99 0.66 1.98 1.32 3 2 C0.69 4.97 -1.62 7.94 -4 11 C-4.99 10.34 -5.98 9.68 -7 9 C-6.34 9 -5.68 9 -5 9 C-4.896875 8.360625 -4.79375 7.72125 -4.6875 7.0625 C-4.460625 6.381875 -4.23375 5.70125 -4 5 C-3.01 4.67 -2.02 4.34 -1 4 C-0.26676204 1.98491642 -0.26676204 1.98491642 0 0 Z " fill="#6E19C2" transform="translate(300,144)"/>
<path d="M0 0 C5.852795 0.51482919 11.3297637 1.45357192 17 3 C17 3.33 17 3.66 17 4 C12.71 4 8.42 4 4 4 C3.67 3.34 3.34 2.68 3 2 C2.01 1.34 1.02 0.68 0 0 Z " fill="#701AB7" transform="translate(226,24)"/>
<path d="M0 0 C0.66 0.33 1.32 0.66 2 1 C2 1.66 2 2.32 2 3 C0.59308393 3.72750788 -0.82606022 4.43140353 -2.25 5.125 C-3.03890625 5.51945312 -3.8278125 5.91390625 -4.640625 6.3203125 C-7 7 -7 7 -9.296875 6.1171875 C-9.85890625 5.74851562 -10.4209375 5.37984375 -11 5 C-9.21289414 4.13633178 -7.4201535 3.28431406 -5.625 2.4375 C-4.62726563 1.96183594 -3.62953125 1.48617188 -2.6015625 0.99609375 C-1.74304688 0.66738281 -0.88453125 0.33867187 0 0 Z " fill="#7616C3" transform="translate(324,16)"/>
<path d="M0 0 C0.66796875 1.79296875 0.66796875 1.79296875 1 4 C-0.07421875 5.73828125 -0.07421875 5.73828125 -1.6875 7.3125 C-2.46673828 8.11107422 -2.46673828 8.11107422 -3.26171875 8.92578125 C-5 10 -5 10 -7.20703125 9.66796875 C-7.79871094 9.44753906 -8.39039062 9.22710937 -9 9 C-6 6 -3 3 0 0 Z " fill="#1C0DA3" transform="translate(37,275)"/>
<path d="M0 0 C2.3125 0.125 2.3125 0.125 5 1 C6.8125 4.0625 6.8125 4.0625 8 7 C5.03 6.505 5.03 6.505 2 6 C1.34 4.02 0.68 2.04 0 0 Z " fill="#851ADD" transform="translate(310,193)"/>
<path d="M0 0 C1.32 0.33 2.64 0.66 4 1 C0.04 4.465 0.04 4.465 -4 8 C-4.66 7.67 -5.32 7.34 -6 7 C-6 6.34 -6 5.68 -6 5 C-2.53846154 2 -2.53846154 2 0 2 C0 1.34 0 0.68 0 0 Z " fill="#3617A9" transform="translate(105,183)"/>
<path d="M0 0 C0.99 0.33 1.98 0.66 3 1 C1.88200014 2.33920838 0.75538103 3.67122556 -0.375 5 C-1.00148437 5.7425 -1.62796875 6.485 -2.2734375 7.25 C-3.12808594 8.11625 -3.12808594 8.11625 -4 9 C-4.66 9 -5.32 9 -6 9 C-5.49396008 6.83125748 -5.00016187 5.00032373 -4 3 C-3.34 3 -2.68 3 -2 3 C-2 2.34 -2 1.68 -2 1 C-1.34 0.67 -0.68 0.34 0 0 Z " fill="#2F169D" transform="translate(157,253)"/>
<path d="M0 0 C0.66 0 1.32 0 2 0 C1.44449305 3.59905908 0.25112752 4.99909799 -2.5625 7.25 C-3.20316406 7.77078125 -3.84382813 8.2915625 -4.50390625 8.828125 C-4.99761719 9.21484375 -5.49132812 9.6015625 -6 10 C-6 8.68 -6 7.36 -6 6 C-5.34 6 -4.68 6 -4 6 C-3.67 4.68 -3.34 3.36 -3 2 C-2.34 2 -1.68 2 -1 2 C-0.67 1.34 -0.34 0.68 0 0 Z " fill="#771CBC" transform="translate(329,75)"/>
<path d="M0 0 C0.66 0.66 1.32 1.32 2 2 C-1.625 7.75 -1.625 7.75 -5 10 C-5.33 9.34 -5.66 8.68 -6 8 C-4.7260411 5.96166576 -3.38938077 3.96147874 -2 2 C-1.34 2 -0.68 2 0 2 C0 1.34 0 0.68 0 0 Z " fill="#3719A5" transform="translate(169,237)"/>
<path d="M0 0 C-0.99 0.495 -0.99 0.495 -2 1 C-1.34 1.66 -0.68 2.32 0 3 C-0.99 3 -1.98 3 -3 3 C-3 3.66 -3 4.32 -3 5 C-5.31 5 -7.62 5 -10 5 C-9.34 4.67 -8.68 4.34 -8 4 C-8 3.34 -8 2.68 -8 2 C-3.61016949 -1.20338983 -3.61016949 -1.20338983 0 0 Z " fill="#691AC3" transform="translate(292,122)"/>
<path d="M0 0 C2 2 2 2 2.265625 4.05859375 C2.26046875 4.84363281 2.2553125 5.62867187 2.25 6.4375 C2.25515625 7.21996094 2.2603125 8.00242187 2.265625 8.80859375 C2 11 2 11 0 14 C-0.66 13.67 -1.32 13.34 -2 13 C-1.67 12.34 -1.34 11.68 -1 11 C-0.95524382 9.50066785 -0.9610521 7.99949427 -1 6.5 C-1.11111111 2.22222222 -1.11111111 2.22222222 0 0 Z " fill="#6815D1" transform="translate(227,98)"/>
<path d="M0 0 C0.66 0 1.32 0 2 0 C0.44499019 3.81684226 -2.03595495 6.19195732 -5 9 C-5 7.02 -5 5.04 -5 3 C-3.35 2.67 -1.7 2.34 0 2 C0 1.34 0 0.68 0 0 Z " fill="#7516C1" transform="translate(337,66)"/>
<path d="M0 0 C2.31 0 4.62 0 7 0 C6.67 1.32 6.34 2.64 6 4 C4.02 4 2.04 4 0 4 C0 2.68 0 1.36 0 0 Z " fill="#8C20E1" transform="translate(273,63)"/>
<path d="M0 0 C-0.33 0.99 -0.66 1.98 -1 3 C-2.98 3 -4.96 3 -7 3 C-7.33 3.66 -7.66 4.32 -8 5 C-9.65 5 -11.3 5 -13 5 C-13 4.34 -13 3.68 -13 3 C-8.76915382 1.13345022 -4.65260883 0 0 0 Z " fill="#2C1CC1" transform="translate(41,303)"/>
<path d="M0 0 C2 2 2 2 2.1953125 3.9453125 C2.13020833 5.96354167 2.06510417 7.98177083 2 10 C1.34 10 0.68 10 0 10 C-1.49106457 7.01787087 -1.11941467 4.28390342 -1 1 C-0.67 0.67 -0.34 0.34 0 0 Z " fill="#911CE9" transform="translate(299,105)"/>
<path d="M0 0 C1.32 0.66 2.64 1.32 4 2 C3.34 2 2.68 2 2 2 C2 2.66 2 3.32 2 4 C1.34 4 0.68 4 0 4 C-0.103125 4.639375 -0.20625 5.27875 -0.3125 5.9375 C-0.539375 6.618125 -0.76625 7.29875 -1 8 C-1.99 8.33 -2.98 8.66 -4 9 C-3.690625 8.4225 -3.38125 7.845 -3.0625 7.25 C-2.07330775 5.15523995 -1.54058583 3.23956987 -1 1 C-0.67 0.67 -0.34 0.34 0 0 Z " fill="#921DEC" transform="translate(323,77)"/>
<path d="M0 0 C3.77545388 1.09068668 6.47043472 1.9083091 9 5 C6 6 6 6 2.8125 4.5625 C1.884375 4.046875 0.95625 3.53125 0 3 C0 2.01 0 1.02 0 0 Z " fill="#7D14C8" transform="translate(248,30)"/>
<path d="M0 0 C0.99 0 1.98 0 3 0 C3.33 0.99 3.66 1.98 4 3 C3.05125 3.45375 2.1025 3.9075 1.125 4.375 C-2.00313679 5.80238254 -2.00313679 5.80238254 -4 8 C-3.67 6.35 -3.34 4.7 -3 3 C-2.01 3 -1.02 3 0 3 C0 2.01 0 1.02 0 0 Z " fill="#3B1FC2" transform="translate(147,261)"/>
<path d="M0 0 C1 3 1 3 0.3125 5.125 C-1 7 -1 7 -3.125 7.75 C-4.053125 7.87375 -4.053125 7.87375 -5 8 C-4.64950425 4.75791433 -4.43778819 3.38472296 -1.9375 1.1875 C-1.298125 0.795625 -0.65875 0.40375 0 0 Z " fill="#3B15B5" transform="translate(157,227)"/>
<path d="M0 0 C2.1875 1.4375 2.1875 1.4375 4 3 C3.67 3.99 3.34 4.98 3 6 C0.5625 5.1875 0.5625 5.1875 -2 4 C-2.33 3.01 -2.66 2.02 -3 1 C-2.01 0.67 -1.02 0.34 0 0 Z " fill="#631DC3" transform="translate(250,215)"/>
<path d="M0 0 C1.65 0 3.3 0 5 0 C5 2.31 5 4.62 5 7 C4.01 7 3.02 7 2 7 C1.34 4.69 0.68 2.38 0 0 Z " fill="#9A24EE" transform="translate(359,10)"/>
<path d="M0 0 C0.66 0.99 1.32 1.98 2 3 C0.02 3.66 -1.96 4.32 -4 5 C-4 4.34 -4 3.68 -4 3 C-5.98 3 -7.96 3 -10 3 C-9.67 2.34 -9.34 1.68 -9 1 C-7.88625 1.020625 -6.7725 1.04125 -5.625 1.0625 C-2.16784079 1.26380718 -2.16784079 1.26380718 0 0 Z " fill="#2416A1" transform="translate(87,300)"/>
<path d="M0 0 C0.99 0.33 1.98 0.66 3 1 C2.67 3.31 2.34 5.62 2 8 C1.01 7.67 0.02 7.34 -1 7 C-0.67 4.69 -0.34 2.38 0 0 Z " fill="#941FEA" transform="translate(301,137)"/>
<path d="M0 0 C-0.66 1.32 -1.32 2.64 -2 4 C-2.66 4 -3.32 4 -4 4 C-4.33 4.66 -4.66 5.32 -5 6 C-6.32 5.67 -7.64 5.34 -9 5 C-7.87926138 4.16094435 -6.75325453 3.32892169 -5.625 2.5 C-4.99851562 2.0359375 -4.37203125 1.571875 -3.7265625 1.09375 C-2 0 -2 0 0 0 Z " fill="#7715C7" transform="translate(305,27)"/>
<path d="M0 0 C-3.18762365 2.12508244 -5.26512223 2.5020163 -9 3 C-9 2.01 -9 1.02 -9 0 C-5.52176885 -1.15941038 -3.54104422 -0.70820884 0 0 Z " fill="#431BA1" transform="translate(273,337)"/>
<path d="M0 0 C-1.49097658 3.7952131 -3.75700849 5.61042731 -7 8 C-4.73913043 0 -4.73913043 0 0 0 Z " fill="#1D17BC" transform="translate(56,259)"/>
<path d="M0 0 C1.32 0.66 2.64 1.32 4 2 C-1.75 7 -1.75 7 -4 7 C-2.92598892 4.08482708 -2.22189824 2.22189824 0 0 Z " fill="#5919AC" transform="translate(234,120)"/>
<path d="M0 0 C0.33 0.66 0.66 1.32 1 2 C1.66 2 2.32 2 3 2 C3 2.99 3 3.98 3 5 C2.34 5 1.68 5 1 5 C0.67 5.99 0.34 6.98 0 8 C-0.66 8 -1.32 8 -2 8 C-1.47731534 5.23723823 -0.89130413 2.6739124 0 0 Z " fill="#6B16D2" transform="translate(224,113)"/>
<path d="M0 0 C2.375 -0.1875 2.375 -0.1875 5 0 C5.66 0.99 6.32 1.98 7 3 C6.67 3.99 6.34 4.98 6 6 C4.68 5.34 3.36 4.68 2 4 C2 3.01 2 2.02 2 1 C1.34 0.67 0.68 0.34 0 0 Z " fill="#6C18B6" transform="translate(266,60)"/>
<path d="M0 0 C0 0.99 0 1.98 0 3 C-1.98 3.33 -3.96 3.66 -6 4 C-6 2.68 -6 1.36 -6 0 C-3.50907189 -1.24546405 -2.58919267 -0.7767578 0 0 Z " fill="#8F1EE3" transform="translate(260,36)"/>
<path d="M0 0 C0.99 0 1.98 0 3 0 C3 0.99 3 1.98 3 3 C3.66 3 4.32 3 5 3 C5.33 4.32 5.66 5.64 6 7 C3.5625 6.3125 3.5625 6.3125 1 5 C0.1875 2.375 0.1875 2.375 0 0 Z " fill="#261EB6" transform="translate(58,328)"/>
<path d="M0 0 C0.66 0.33 1.32 0.66 2 1 C-0.10148204 4.98175544 -2.36905358 7.35039045 -6 10 C-4.34832443 6.4213696 -2.21713508 3.25179812 0 0 Z " fill="#4E21D2" transform="translate(148,238)"/>
<path d="M0 0 C0.66 0.66 1.32 1.32 2 2 C1.67 2.66 1.34 3.32 1 4 C0.34 4 -0.32 4 -1 4 C-1.12375 4.639375 -1.2475 5.27875 -1.375 5.9375 C-1.58125 6.618125 -1.7875 7.29875 -2 8 C-2.99 8.495 -2.99 8.495 -4 9 C-3.67 7.02 -3.34 5.04 -3 3 C-2.01 2.67 -1.02 2.34 0 2 C0 1.34 0 0.68 0 0 Z " fill="#391BA4" transform="translate(179,225)"/>
<path d="M0 0 C2.97 0.495 2.97 0.495 6 1 C4.68 2.32 3.36 3.64 2 5 C1.01 4.67 0.02 4.34 -1 4 C-0.67 2.68 -0.34 1.36 0 0 Z " fill="#3E17B3" transform="translate(162,179)"/>
<path d="M0 0 C1.32 0 2.64 0 4 0 C4.33 1.32 4.66 2.64 5 4 C3.02 4.33 1.04 4.66 -1 5 C-0.67 3.35 -0.34 1.7 0 0 Z " fill="#7E1FDF" transform="translate(245,108)"/>
<path d="M0 0 C0 2 0 4 0 6 C-1.98 6.99 -1.98 6.99 -4 8 C-4.66 7.34 -5.32 6.68 -6 6 C-4.02 4.02 -2.04 2.04 0 0 Z " fill="#7117C7" transform="translate(276,100)"/>
<path d="M0 0 C0.66 0 1.32 0 2 0 C2.33 1.98 2.66 3.96 3 6 C1.68 6 0.36 6 -1 6 C-1.042721 4.33388095 -1.04063832 2.66617115 -1 1 C-0.67 0.67 -0.34 0.34 0 0 Z " fill="#8921ED" transform="translate(261,94)"/>
<path d="M0 0 C5.875 3.625 5.875 3.625 7 7 C4.625 6.6875 4.625 6.6875 2 6 C0 3 0 3 0 0 Z " fill="#7512C6" transform="translate(268,42)"/>
<path d="M0 0 C3.63 0.33 7.26 0.66 11 1 C11 1.33 11 1.66 11 2 C7.7 2.33 4.4 2.66 1 3 C0.67 2.01 0.34 1.02 0 0 Z " fill="#361D89" transform="translate(240,342)"/>
<path d="M0 0 C1.65 0 3.3 0 5 0 C5 0.66 5 1.32 5 2 C1.91190305 3.76462683 0.76687864 4 -3 4 C-3 3.34 -3 2.68 -3 2 C-2.01 2 -1.02 2 0 2 C0 1.34 0 0.68 0 0 Z " fill="#371BC8" transform="translate(54,297)"/>
<path d="M0 0 C0 2 0 2 -1.125 3.625 C-3.75887944 5.55651159 -5.81916956 5.21205536 -9 5 C-2.87096774 0 -2.87096774 0 0 0 Z " fill="#4316AD" transform="translate(252,273)"/>
<path d="M0 0 C0.66 0 1.32 0 2 0 C1.67 3.3 1.34 6.6 1 10 C-1.29404844 6.55892734 -1.26293056 5.03160191 -1 1 C-0.67 0.67 -0.34 0.34 0 0 Z " fill="#3A20C7" transform="translate(106,210)"/>
<path d="M0 0 C0.66 0.99 1.32 1.98 2 3 C-0.31 4.98 -2.62 6.96 -5 9 C-5.66 8.67 -6.32 8.34 -7 8 C-4.79020692 5.18060883 -2.59937954 2.46941056 0 0 Z " fill="#6B17BC" transform="translate(252,125)"/>
<path d="M0 0 C2.31 0 4.62 0 7 0 C6.01 1.485 6.01 1.485 5 3 C1.875 3.1875 1.875 3.1875 -1 3 C-0.67 2.01 -0.34 1.02 0 0 Z " fill="#9520EE" transform="translate(337,12)"/>
<path d="M0 0 C2.31 0 4.62 0 7 0 C7 0.66 7 1.32 7 2 C4.36 2.33 1.72 2.66 -1 3 C-0.67 2.01 -0.34 1.02 0 0 Z " fill="#5A32CF" transform="translate(247,340)"/>
<path d="M0 0 C2.64 0.33 5.28 0.66 8 1 C5.03312999 2.64826111 2.34373475 3.44271087 -1 4 C-0.67 2.68 -0.34 1.36 0 0 Z " fill="#21138B" transform="translate(47,300)"/>
<path d="M0 0 C0.33 0 0.66 0 1 0 C1.33 3.63 1.66 7.26 2 11 C1.34 11 0.68 11 0 11 C-1.28571429 3.57142857 -1.28571429 3.57142857 0 0 Z " fill="#411FC6" transform="translate(72,283)"/>
<path d="M0 0 C2.475 0.495 2.475 0.495 5 1 C4.34 2.65 3.68 4.3 3 6 C2.34 6 1.68 6 1 6 C0.67 4.02 0.34 2.04 0 0 Z " fill="#4319B8" transform="translate(180,220)"/>
<path d="M0 0 C2.475 0.495 2.475 0.495 5 1 C4.67 1.66 4.34 2.32 4 3 C3.34 3 2.68 3 2 3 C2 4.32 2 5.64 2 7 C1.34 7 0.68 7 0 7 C0 4.69 0 2.38 0 0 Z " fill="#2218B5" transform="translate(57,218)"/>
<path d="M0 0 C0.99 0.33 1.98 0.66 3 1 C1.35 2.98 -0.3 4.96 -2 7 C-2.33 5.68 -2.66 4.36 -3 3 C-2.01 2.67 -1.02 2.34 0 2 C0 1.34 0 0.68 0 0 Z " fill="#4018A6" transform="translate(189,213)"/>
<path d="M0 0 C1.4540625 0.0309375 1.4540625 0.0309375 2.9375 0.0625 C1.5625 1.5625 1.5625 1.5625 -0.0625 3.0625 C-0.7225 3.0625 -1.3825 3.0625 -2.0625 3.0625 C-2.3925 3.7225 -2.7225 4.3825 -3.0625 5.0625 C-3.625 3.125 -3.625 3.125 -4.0625 1.0625 C-3.0625 0.0625 -3.0625 0.0625 0 0 Z " fill="#2C1B9D" transform="translate(97.0625,190.9375)"/>
<path d="M0 0 C1.32 0.66 2.64 1.32 4 2 C1.69 3.65 -0.62 5.3 -3 7 C-2 3 -2 3 0 0 Z " fill="#4717A5" transform="translate(204,145)"/>
<path d="M0 0 C0.66 1.32 1.32 2.64 2 4 C0.02 5.32 -1.96 6.64 -4 8 C-2.25 2.25 -2.25 2.25 0 0 Z " fill="#6C16CF" transform="translate(244,134)"/>
<path d="M0 0 C0.99 0.33 1.98 0.66 3 1 C3 3.15634036 2.5534764 4.92446352 2 7 C0.68 6.01 -0.64 5.02 -2 4 C-1.34 2.68 -0.68 1.36 0 0 Z " fill="#851CE7" transform="translate(290,75)"/>
<path d="M0 0 C0.66 0.66 1.32 1.32 2 2 C1.34 2 0.68 2 0 2 C-0.33 2.99 -0.66 3.98 -1 5 C-2.65 5 -4.3 5 -6 5 C-6 4.01 -6 3.02 -6 2 C-4.7934375 1.7834375 -4.7934375 1.7834375 -3.5625 1.5625 C-1.07896294 1.25864751 -1.07896294 1.25864751 0 0 Z " fill="#8F1EE8" transform="translate(281,48)"/>
<path d="M0 0 C2.0625 0.4375 2.0625 0.4375 4 1 C4 1.66 4 2.32 4 3 C4.99 3.33 5.98 3.66 7 4 C4.125 4.1875 4.125 4.1875 1 4 C0.34 3.01 -0.32 2.02 -1 1 C-0.67 0.67 -0.34 0.34 0 0 Z " fill="#190C92" transform="translate(69,340)"/>
<path d="M0 0 C0.66 0.33 1.32 0.66 2 1 C0.35 2.65 -1.3 4.3 -3 6 C-3.99 5.67 -4.98 5.34 -6 5 C-5.34 4.67 -4.68 4.34 -4 4 C-4 3.34 -4 2.68 -4 2 C-2.125 0.9375 -2.125 0.9375 0 0 Z " fill="#2D1FBA" transform="translate(94,295)"/>
<path d="M0 0 C0.33 1.32 0.66 2.64 1 4 C-0.32 4.99 -1.64 5.98 -3 7 C-3.66 6.67 -4.32 6.34 -5 6 C-3.35 4.02 -1.7 2.04 0 0 Z " fill="#1E11A7" transform="translate(111,275)"/>
<path d="M0 0 C0.66 0.33 1.32 0.66 2 1 C1.34 2.65 0.68 4.3 0 6 C-1.32 5.67 -2.64 5.34 -4 5 C-2.68 3.35 -1.36 1.7 0 0 Z " fill="#3116AA" transform="translate(136,248)"/>
<path d="M0 0 C0 0.66 0 1.32 0 2 C0.66 2 1.32 2 2 2 C2.33 3.32 2.66 4.64 3 6 C0.11424181 5.60196439 -0.82189513 5.20990931 -2.75 2.9375 C-3.1625 2.298125 -3.575 1.65875 -4 1 C-2 0 -2 0 0 0 Z " fill="#8A1BEA" transform="translate(302,184)"/>
<path d="M0 0 C1.32 0.33 2.64 0.66 4 1 C1.03 3.475 1.03 3.475 -2 6 C-2.33 5.34 -2.66 4.68 -3 4 C-2.67 3.34 -2.34 2.68 -2 2 C-1.34 2 -0.68 2 0 2 C0 1.34 0 0.68 0 0 Z " fill="#6B17B7" transform="translate(291,155)"/>
<path d="M0 0 C1.24546405 2.49092811 0.7767578 3.41080733 0 6 C-1.98 6.33 -3.96 6.66 -6 7 C-4.02 4.69 -2.04 2.38 0 0 Z " fill="#5918BA" transform="translate(231,148)"/>
<path d="M0 0 C1.32 0.33 2.64 0.66 4 1 C1.69 2.65 -0.62 4.3 -3 6 C-2 2 -2 2 0 0 Z " fill="#6712AF" transform="translate(253,64)"/>
<path d="M0 0 C0.33 0 0.66 0 1 0 C1.3125 2.3125 1.3125 2.3125 1 5 C-1.5 6.8125 -1.5 6.8125 -4 8 C-2.25 2.25 -2.25 2.25 0 0 Z " fill="#8C23DF" transform="translate(352,41)"/>
<path d="M0 0 C2.64 0.33 5.28 0.66 8 1 C8 1.33 8 1.66 8 2 C3.545 2.495 3.545 2.495 -1 3 C-0.67 2.01 -0.34 1.02 0 0 Z " fill="#491FD5" transform="translate(7,310)"/>
<path d="M0 0 C2.97 0.495 2.97 0.495 6 1 C2.81237635 3.12508244 0.73487777 3.5020163 -3 4 C-2.34 3.67 -1.68 3.34 -1 3 C-0.67 2.01 -0.34 1.02 0 0 Z " fill="#171080" transform="translate(34,305)"/>
<path d="M0 0 C1.65 0.33 3.3 0.66 5 1 C4.67 2.32 4.34 3.64 4 5 C1.525 4.01 1.525 4.01 -1 3 C-0.67 2.01 -0.34 1.02 0 0 Z " fill="#6F24E0" transform="translate(255,220)"/>
<path d="M0 0 C0.99 0.33 1.98 0.66 3 1 C1.71937515 2.7074998 0.38232443 4.37373596 -1 6 C-1.66 6 -2.32 6 -3 6 C-3 3 -3 3 -1.5 1.3125 C-0.7575 0.6628125 -0.7575 0.6628125 0 0 Z " fill="#7A55BF" transform="translate(62,218)"/>
<path d="M0 0 C2.76223278 2.76223278 2.57856291 5.20706617 3 9 C0.47411298 6.63707344 -0.88820837 5.33537489 -2 2 C-1.34 2 -0.68 2 0 2 C0 1.34 0 0.68 0 0 Z " fill="#7B20D3" transform="translate(327,217)"/>
<path d="M0 0 C1.32 0.66 2.64 1.32 4 2 C2.02 3.32 0.04 4.64 -2 6 C-2.33 5.01 -2.66 4.02 -3 3 C-2.01 2.01 -1.02 1.02 0 0 Z " fill="#2A1796" transform="translate(89,196)"/>
<path d="M0 0 C0.33 0 0.66 0 1 0 C1 1.98 1 3.96 1 6 C-0.32 5.67 -1.64 5.34 -3 5 C-2.67 3.68 -2.34 2.36 -2 1 C-1.67 1.33 -1.34 1.66 -1 2 C-0.67 1.34 -0.34 0.68 0 0 Z " fill="#6F23E6" transform="translate(224,160)"/>
<path d="M0 0 C5.75 1.625 5.75 1.625 8 5 C5.36 4.34 2.72 3.68 0 3 C0 2.01 0 1.02 0 0 Z " fill="#7713BF" transform="translate(255,76)"/>
<path d="M0 0 C1.98 0.495 1.98 0.495 4 1 C4 1.66 4 2.32 4 3 C3.01 3 2.02 3 1 3 C1 3.66 1 4.32 1 5 C0.34 5 -0.32 5 -1 5 C-0.67 3.35 -0.34 1.7 0 0 Z " fill="#9219E5" transform="translate(336,63)"/>
<path d="M0 0 C2.97 0 5.94 0 9 0 C5.71299843 1.64350079 3.52069985 2.41321669 0 3 C0 2.01 0 1.02 0 0 Z " fill="#5811A6" transform="translate(257,61)"/>
</svg>
